<svg width="120" height="120" viewBox="0 0 120 120" fill="none" xmlns="http://www.w3.org/2000/svg">
<circle cx="60" cy="60" r="60" fill="black"/>
<path fill-rule="evenodd" clip-rule="evenodd" d="M26.25 24.375V95.625H88.125V89.0625H33.75V30.9375H88.125V24.375H26.25Z" fill="white"/>
<path d="M105.733 40.4667C107.795 40.4667 109.467 38.7952 109.467 36.7333C109.467 34.6715 107.795 33 105.733 33C103.671 33 102 34.6715 102 36.7333C102 38.7952 103.671 40.4667 105.733 40.4667Z" stroke="white" stroke-width="0.5"/>
<path d="M104.398 38.9881V34.3335H105.971C106.335 34.3335 106.633 34.3956 106.867 34.5199C107.1 34.6426 107.273 34.8115 107.385 35.0267C107.497 35.2418 107.553 35.4865 107.553 35.7608C107.553 36.035 107.497 36.2782 107.385 36.4903C107.273 36.7024 107.101 36.8691 106.869 36.9903C106.637 37.11 106.341 37.1699 105.98 37.1699H104.708V36.6608H105.962C106.211 36.6608 106.411 36.6244 106.562 36.5517C106.715 36.479 106.826 36.3759 106.894 36.2426C106.964 36.1077 106.998 35.9471 106.998 35.7608C106.998 35.5744 106.964 35.4115 106.894 35.2721C106.824 35.1327 106.713 35.0252 106.56 34.9494C106.407 34.8721 106.204 34.8335 105.953 34.8335H104.962V38.9881H104.398ZM106.589 36.8971L107.735 38.9881H107.08L105.953 36.8971H106.589Z" fill="white"/>
<path d="M99.5 40.61V46.825H83.495V56.67H95.76V62.775H83.495V79H75.795V40.61H99.5Z" fill="white"/>
</svg>
