<svg width="360" height="360" viewBox="0 0 360 360" fill="none" xmlns="http://www.w3.org/2000/svg">
<g filter="url(#filter0_dd_1_3)">
<rect x="37.0618" y="37.0618" width="277.318" height="277.318" rx="64.7703" fill="#FF0000"/>
<path d="M135.928 134.344C149.262 111.249 155.929 99.7011 164.728 96.0023C171.758 93.0475 179.681 93.0475 186.71 96.0023C195.509 99.7011 202.176 111.249 215.51 134.344L247.823 190.312C261.157 213.407 267.824 224.954 266.628 234.424C265.672 241.989 261.711 248.851 255.637 253.461C248.034 259.231 234.7 259.231 208.032 259.231H143.406C116.738 259.231 103.404 259.231 95.8013 253.461C89.7278 248.851 85.7663 241.989 84.8106 234.424C83.6143 224.954 90.2813 213.407 103.615 190.312L135.928 134.344Z" fill="white"/>
<rect x="166.616" y="138.213" width="18.2018" height="67.0865" rx="5.67292" fill="#FF0000"/>
<rect x="166.616" y="218.302" width="18.2018" height="18.2018" rx="5.67292" fill="#FF0000"/>
</g>
<defs>
<filter id="filter0_dd_1_3" x="0.8943" y="0.8943" width="359.088" height="359.088" filterUnits="userSpaceOnUse" color-interpolation-filters="sRGB">
<feFlood flood-opacity="0" result="BackgroundImageFix"/>
<feColorMatrix in="SourceAlpha" type="matrix" values="0 0 0 0 0 0 0 0 0 0 0 0 0 0 0 0 0 0 127 0" result="hardAlpha"/>
<feOffset dx="4.7175" dy="4.7175"/>
<feGaussianBlur stdDeviation="8.25562"/>
<feComposite in2="hardAlpha" operator="out"/>
<feColorMatrix type="matrix" values="0 0 0 0 0 0 0 0 0 0 0 0 0 0 0 0 0 0 0.16 0"/>
<feBlend mode="normal" in2="BackgroundImageFix" result="effect1_dropShadow_1_3"/>
<feColorMatrix in="SourceAlpha" type="matrix" values="0 0 0 0 0 0 0 0 0 0 0 0 0 0 0 0 0 0 127 0" result="hardAlpha"/>
<feOffset dx="4.7175" dy="4.7175"/>
<feGaussianBlur stdDeviation="20.4425"/>
<feComposite in2="hardAlpha" operator="out"/>
<feColorMatrix type="matrix" values="0 0 0 0 0 0 0 0 0 0 0 0 0 0 0 0 0 0 0.26 0"/>
<feBlend mode="normal" in2="effect1_dropShadow_1_3" result="effect2_dropShadow_1_3"/>
<feBlend mode="normal" in="SourceGraphic" in2="effect2_dropShadow_1_3" result="shape"/>
</filter>
</defs>
</svg>
