<svg width="198" height="60" viewBox="0 0 198 60" fill="none" xmlns="http://www.w3.org/2000/svg">
<g clip-path="url(#clip0_1510_877)">
<path d="M190.19 0H7.80268C3.49338 0 0 3.58172 0 8V52C0 56.4183 3.49338 60 7.80268 60H190.19C194.5 60 197.993 56.4183 197.993 52V8C197.993 3.58172 194.5 0 190.19 0Z" fill="white" stroke="#CFCFCF"/>
<mask id="mask0_1510_877" style="mask-type:alpha" maskUnits="userSpaceOnUse" x="0" y="0" width="198" height="60">
<path d="M0 60H197.505V0H0V60Z" fill="white"/>
</mask>
<g mask="url(#mask0_1510_877)">
<path fill-rule="evenodd" clip-rule="evenodd" d="M92.6456 31.1841C94.1203 31.1841 95.3376 31.7841 96.3207 32.9721C97.3272 34.1721 97.8188 35.7321 97.8188 37.6881C97.8188 39.8601 97.2453 41.5761 96.0866 42.8361C95.0567 43.9641 93.7692 44.5161 92.2477 44.5161C90.5974 44.5161 89.4153 43.9161 88.6897 42.7041V49.4121H85.9158V35.6481C85.9158 34.2801 85.8807 32.8881 85.8105 31.4481H88.2449L88.3971 33.4761H88.4439C89.3685 31.9521 90.773 31.1841 92.6456 31.1841ZM78.3198 31.1841C79.7945 31.1841 81.0117 31.7841 81.9949 32.9721C83.0014 34.1721 83.493 35.7321 83.493 37.6881C83.493 39.8601 82.9195 41.5761 81.7608 42.8361C80.7308 43.9641 79.4434 44.5161 77.9219 44.5161C76.2716 44.5161 75.0895 43.9161 74.3638 42.7041V49.4121H71.59V35.6481C71.59 34.2801 71.5549 32.8881 71.4846 31.4481H73.9191L74.0712 33.4761H74.118C75.0427 31.9521 76.4471 31.1841 78.3198 31.1841ZM130.766 31.196C132.591 31.196 134.066 31.82 135.178 33.068C136.243 34.268 136.77 35.828 136.77 37.736C136.77 39.704 136.22 41.312 135.131 42.572C133.984 43.868 132.463 44.516 130.567 44.516C128.741 44.516 127.278 43.892 126.189 42.656C125.101 41.42 124.562 39.848 124.562 37.952C124.562 35.972 125.124 34.352 126.236 33.092C127.36 31.832 128.87 31.196 130.766 31.196ZM109.289 26.2521C110.857 26.2521 112.168 26.5281 113.21 27.0921L112.507 29.3961C111.524 28.8561 110.424 28.5801 109.183 28.5801C108.212 28.5801 107.44 28.8321 106.889 29.3121C106.433 29.7561 106.199 30.2841 106.199 30.9201C106.199 31.6161 106.468 32.2041 106.995 32.6481C107.451 33.0681 108.294 33.5241 109.511 34.0161C110.998 34.6281 112.086 35.3481 112.788 36.1761C113.502 37.0041 113.853 38.0361 113.853 39.2601C113.853 40.7721 113.338 41.9961 112.32 42.9441C111.197 43.9761 109.628 44.4921 107.615 44.4921C105.754 44.4921 104.268 44.1201 103.144 43.3881L103.788 41.0241C105.005 41.7561 106.339 42.1281 107.791 42.1281C108.832 42.1281 109.652 41.8881 110.225 41.4081C110.81 40.9281 111.103 40.2801 111.103 39.4761C111.103 38.7561 110.857 38.1561 110.389 37.6641C109.909 37.1721 109.113 36.7161 108.001 36.2961C104.947 35.1321 103.437 33.4401 103.437 31.2201C103.437 29.7681 103.975 28.5801 105.04 27.6441C106.105 26.7201 107.521 26.2521 109.289 26.2521ZM119.974 28.2681V31.4481H123.029V33.5841H119.974V39.7881C119.974 41.3601 120.513 42.1521 121.59 42.1521C122.081 42.1521 122.491 42.1041 122.819 42.0201L122.9 44.1801C122.35 44.3841 121.636 44.4921 120.747 44.4921C119.647 44.4921 118.804 44.1441 118.184 43.4601C117.563 42.7761 117.259 41.6241 117.259 40.0161V33.5721H115.445V31.4481H117.259V29.1081L119.974 28.2681ZM152.98 31.148C154.77 31.148 156.14 31.832 157.053 33.2C157.79 34.304 158.165 35.636 158.165 37.232C158.165 37.736 158.13 38.168 158.06 38.516H149.749C149.784 39.776 150.182 40.748 150.955 41.408C151.657 41.996 152.558 42.296 153.67 42.296C154.899 42.296 156.023 42.092 157.029 41.696L157.463 43.664C156.28 44.192 154.887 44.456 153.284 44.456C151.353 44.456 149.832 43.868 148.731 42.704C147.631 41.54 147.081 39.968 147.081 38.012C147.081 36.092 147.596 34.484 148.626 33.2C149.703 31.832 151.154 31.148 152.98 31.148ZM145.08 31.184C145.337 31.184 145.571 31.208 145.77 31.232L145.782 33.944C145.513 33.896 145.22 33.872 144.904 33.872C143.933 33.872 143.172 34.244 142.645 35C142.189 35.66 141.955 36.512 141.955 37.52V44.228H139.181V35.468C139.181 33.992 139.157 32.648 139.099 31.448H141.51L141.615 33.896H141.697C141.99 33.056 142.446 32.372 143.078 31.868C143.698 31.412 144.366 31.184 145.08 31.184ZM63.6195 26.5041L69.2024 44.2281H66.2529L64.6378 39.0201H59.0199L57.4866 44.2281H54.6191L60.1786 26.5041H63.6195ZM130.672 33.26C129.56 33.26 128.706 33.764 128.132 34.784C127.629 35.624 127.395 36.644 127.395 37.856C127.395 39.032 127.641 40.04 128.132 40.868C128.729 41.888 129.572 42.392 130.649 42.392C131.702 42.392 132.533 41.876 133.142 40.844C133.645 39.98 133.902 38.972 133.902 37.796C133.902 36.62 133.657 35.624 133.165 34.784C132.58 33.764 131.749 33.26 130.672 33.26ZM91.7678 33.4521C91.089 33.4521 90.4687 33.6921 89.9069 34.1481C89.3568 34.6161 88.994 35.2161 88.8184 35.9721C88.7365 36.3201 88.6897 36.6081 88.6897 36.8361V38.9721C88.6897 39.8961 88.9706 40.6881 89.5207 41.3241C90.0707 41.9601 90.7964 42.2841 91.6859 42.2841C92.7276 42.2841 93.5468 41.8641 94.1203 41.0481C94.7172 40.2201 94.9981 39.1401 94.9981 37.7841C94.9981 36.5361 94.7289 35.5161 94.1789 34.7121C93.582 33.8721 92.7744 33.4521 91.7678 33.4521ZM77.442 33.4521C76.7632 33.4521 76.1428 33.6921 75.581 34.1481C75.031 34.6161 74.6564 35.2161 74.4926 35.9721C74.4106 36.3201 74.3638 36.6081 74.3638 36.8361V38.9721C74.3638 39.8961 74.6447 40.6881 75.1948 41.3241C75.7449 41.9601 76.4706 42.2841 77.3601 42.2841C78.4017 42.2841 79.2093 41.8641 79.7945 41.0481C80.3797 40.2201 80.6723 39.1401 80.6723 37.7841C80.6723 36.5361 80.4031 35.5161 79.853 34.7121C79.2561 33.8721 78.4485 33.4521 77.442 33.4521ZM61.8288 28.8801H61.7703C61.5947 29.6361 61.3255 30.7521 60.951 32.2161L59.5114 36.8361H64.1579L62.6949 32.2161C62.5428 31.7361 62.2502 30.6321 61.8288 28.8801ZM152.781 33.128C151.88 33.128 151.142 33.512 150.581 34.28C150.124 34.892 149.843 35.636 149.761 36.488L155.519 36.5C155.543 35.66 155.356 34.928 154.981 34.316C154.501 33.524 153.764 33.128 152.781 33.128ZM117.528 13.7601C119.296 13.7601 120.478 15.0681 120.478 16.9761C120.478 18.9321 119.261 20.3121 117.423 20.3121C115.632 20.3121 114.474 18.9441 114.474 17.0841C114.474 15.1401 115.656 13.7601 117.528 13.7601ZM93.9096 11V14.804H93.933C94.3427 14.108 94.9864 13.76 95.8876 13.76C97.3623 13.76 98.3923 15.056 98.3923 16.94C98.3923 18.884 97.2453 20.312 95.6887 20.312C94.8226 20.312 94.1788 19.94 93.7575 19.196H93.7341L93.6521 20.168H92.4935C92.5286 19.664 92.5403 19.1 92.5403 18.476V11H93.9096ZM73.3222 13.7721C74.9257 13.7721 75.7332 14.6361 75.7332 16.3761V18.6921C75.7332 19.3281 75.7566 19.8201 75.8269 20.1921L74.5979 20.1681L74.4926 19.4481H74.4575C74.0361 20.0241 73.4392 20.3121 72.6668 20.3121C71.5666 20.3121 70.7941 19.5201 70.7941 18.4641C70.7941 16.9161 72.105 16.1121 74.3756 16.1121V15.9921C74.3756 15.1641 73.9425 14.7561 73.0998 14.7561C72.4912 14.7561 71.9645 14.9121 71.4964 15.2241L71.2155 14.3121C71.7773 13.9521 72.4912 13.7721 73.3222 13.7721ZM87.7533 13.7601C89.3568 13.7601 90.1644 14.6241 90.1644 16.3641V18.6801C90.1644 19.3161 90.1878 19.8081 90.2463 20.1801H89.0291V20.1681L88.9238 19.4481H88.8886C88.4673 20.0241 87.8704 20.3121 87.0979 20.3121C85.9977 20.3121 85.2253 19.5201 85.2253 18.4641C85.2253 16.9161 86.5361 16.1121 88.8067 16.1121V15.9921C88.8067 15.1641 88.3737 14.7561 87.531 14.7561C86.9224 14.7561 86.3957 14.9121 85.9275 15.2241L85.6466 14.3001C86.2084 13.9401 86.9224 13.7601 87.7533 13.7601ZM135.213 12.3201V13.8801H136.711V14.9361H135.201V17.9841C135.201 18.7641 135.471 19.1481 135.997 19.1481C136.231 19.1481 136.442 19.1241 136.606 19.0881L136.641 20.1441C136.372 20.2521 136.021 20.3001 135.588 20.3001C134.511 20.3001 133.879 19.6881 133.879 18.1041V14.9361H132.989V13.8921H133.879V12.7401L135.213 12.3201ZM148.368 13.736C149.925 13.736 150.92 14.924 150.92 16.724C150.92 16.976 150.908 17.192 150.861 17.36H146.777C146.8 18.548 147.573 19.22 148.708 19.22C149.316 19.22 149.867 19.112 150.358 18.92L150.569 19.892C149.995 20.156 149.316 20.276 148.521 20.276C146.601 20.276 145.466 19.04 145.466 17.108C145.466 15.188 146.624 13.736 148.368 13.736ZM106.679 13.736C108.235 13.736 109.23 14.924 109.23 16.724C109.23 16.976 109.218 17.192 109.172 17.36H105.087C105.11 18.548 105.883 19.22 107.018 19.22C107.627 19.22 108.177 19.112 108.668 18.92L108.879 19.892C108.306 20.156 107.627 20.276 106.831 20.276C104.911 20.276 103.776 19.04 103.776 17.108C103.776 15.188 104.935 13.736 106.679 13.736ZM139.953 11.0001V14.7681H139.977C140.41 14.0841 141.018 13.7481 141.814 13.7481C143.113 13.7481 143.909 14.7801 143.909 16.4241V20.1681H142.551V16.5801C142.551 15.4521 142.13 14.8881 141.311 14.8881C140.609 14.8881 139.953 15.3801 139.953 16.3761V20.1561H138.596V11.0001H139.953ZM125.663 13.7481C126.95 13.7481 127.793 14.7561 127.793 16.4001V20.1681H126.435V16.5561C126.435 15.4401 126.014 14.8881 125.194 14.8881C124.387 14.8881 123.837 15.5961 123.837 16.4241V20.1561H122.479V15.6801C122.479 15.1281 122.467 14.5281 122.432 13.8801H123.626L123.685 14.8521H123.72C124.083 14.1801 124.832 13.7481 125.663 13.7481ZM65.2348 13.8801L66.2764 17.2041C66.452 17.7561 66.6041 18.2841 66.7212 18.7881H66.7563C66.8616 18.3321 67.0138 17.8041 67.2011 17.2041L68.231 13.8801H69.6589L67.3415 20.1681H66.0189L63.7718 13.8801H65.2348ZM60.0616 11.456L62.8238 20.168H61.3725L60.5766 17.612H57.8145L57.0537 20.168H55.6492L58.3762 11.456H60.0616ZM101.763 11.0001V20.1561H100.405V11.0001H101.763ZM83.2472 11.0001V20.1561H81.8896V11.0001H83.2472ZM79.4668 13.8801V20.1561H78.1092V13.8801H79.4668ZM88.8418 17.0361C87.332 17.0361 86.5712 17.4081 86.5712 18.3081C86.5712 18.9681 86.9575 19.2921 87.5076 19.2921C88.1981 19.2921 88.8418 18.7521 88.8418 18.0081V17.0361ZM74.4107 17.0361C72.9009 17.0361 72.1401 17.4081 72.1401 18.3081C72.1401 18.9681 72.5263 19.2921 73.0764 19.2921C73.7669 19.2921 74.4107 18.7521 74.4107 18.0081V17.0361ZM117.482 14.7801C116.498 14.7801 115.866 15.7281 115.866 17.0361C115.866 18.3321 116.51 19.2681 117.47 19.2681C118.43 19.2681 119.073 18.2601 119.073 17.0001C119.062 15.7281 118.441 14.7801 117.482 14.7801ZM95.4078 14.852C94.6236 14.852 93.9096 15.548 93.9096 16.52V17.624C93.9096 18.488 94.5534 19.196 95.3843 19.196C96.4026 19.196 97.0112 18.344 97.0112 16.988C97.0112 15.716 96.3792 14.852 95.4078 14.852ZM59.1838 12.608H59.1604C59.0668 12.98 58.9497 13.52 58.7508 14.252L58.0485 16.532H60.3308L59.6169 14.252C59.5467 14.024 59.4062 13.472 59.1838 12.608ZM148.275 14.708C147.491 14.708 146.87 15.404 146.788 16.364H149.621C149.621 15.392 149.141 14.708 148.275 14.708ZM106.585 14.708C105.801 14.708 105.192 15.404 105.099 16.364H107.931C107.931 15.392 107.451 14.708 106.585 14.708ZM78.788 11.1801C79.2562 11.1801 79.6307 11.5281 79.619 12.0081C79.619 12.5121 79.2679 12.8481 78.7646 12.8481C78.3081 12.8481 77.957 12.4881 77.957 12.0081C77.957 11.5281 78.3198 11.1801 78.788 11.1801Z" fill="black"/>
</g>
<path fill-rule="evenodd" clip-rule="evenodd" d="M39.0824 23.1929C39.7935 22.3479 40.2728 21.171 40.1416 20C39.1169 20.04 37.8772 20.6711 37.1424 21.5151C36.4826 22.2641 35.9066 23.4609 36.0615 24.6089C37.2045 24.6959 38.3713 24.0389 39.0824 23.1929ZM41.6456 30.625C41.6742 33.652 44.348 34.6589 44.3776 34.6719C44.3559 34.7429 43.9505 36.1066 42.9692 37.5166C42.12 38.7346 41.2393 39.9476 39.8516 39.9736C38.4886 39.9986 38.0498 39.1797 36.4905 39.1797C34.9322 39.1797 34.445 39.9475 33.155 39.9985C31.8156 40.0475 30.7949 38.6808 29.9398 37.4668C28.1902 34.9838 26.8538 30.4501 28.6488 27.3901C29.5403 25.8712 31.1331 24.9078 32.863 24.8838C34.1777 24.8588 35.4194 25.7529 36.2232 25.7529C37.027 25.7529 38.536 24.6779 40.1219 24.8359C40.7856 24.8629 42.6497 25.0989 43.846 26.8198C43.7493 26.8788 41.622 28.095 41.6456 30.625Z" fill="black"/>
</g>
<defs>
<clipPath id="clip0_1510_877">
<rect width="197.993" height="60" fill="white"/>
</clipPath>
</defs>
</svg>
