<svg width="20" height="20" viewBox="0 0 20 20" fill="none" xmlns="http://www.w3.org/2000/svg">
<path fill-rule="evenodd" clip-rule="evenodd" d="M3.82697 11.004C3.84206 10.9707 3.86639 10.9425 3.89707 10.9228C3.92775 10.903 3.96347 10.8925 3.99997 10.8925C4.03646 10.8925 4.07218 10.903 4.10286 10.9228C4.13354 10.9425 4.15788 10.9707 4.17297 11.004L4.34297 11.375C5.07038 12.8796 6.21612 14.1427 7.64297 15.013L7.90797 15.168C7.93608 15.1837 7.95949 15.2066 7.97578 15.2344C7.99208 15.2621 8.00067 15.2938 8.00067 15.326C8.00067 15.3582 7.99208 15.3898 7.97578 15.4176C7.95949 15.4453 7.93608 15.4682 7.90797 15.484L7.64297 15.639C6.21612 16.5092 5.07038 17.7723 4.34297 19.277L4.17297 19.649C4.15788 19.6822 4.13354 19.7104 4.10286 19.7301C4.07218 19.7499 4.03646 19.7604 3.99997 19.7604C3.96347 19.7604 3.92775 19.7499 3.89707 19.7301C3.86639 19.7104 3.84206 19.6822 3.82697 19.649L3.65697 19.277C2.92955 17.7723 1.78381 16.5092 0.356967 15.639L0.091967 15.484C0.0638577 15.4682 0.0404481 15.4453 0.0241531 15.4176C0.00785808 15.3898 -0.000732422 15.3582 -0.000732422 15.326C-0.000732422 15.2938 0.00785808 15.2621 0.0241531 15.2344C0.0404481 15.2066 0.0638577 15.1837 0.091967 15.168L0.356967 15.013C1.90305 14.0703 3.11618 12.6694 3.82697 11.004ZM3.99697 14.49L3.82197 14.696C3.69697 14.836 3.56897 14.973 3.43697 15.106L3.23697 15.304L3.20997 15.328L3.43697 15.551L3.63197 15.754L3.82197 15.962L3.99697 16.167L4.17197 15.962C4.29697 15.822 4.42497 15.684 4.55697 15.551L4.78397 15.328L4.75697 15.304C4.62197 15.174 4.48997 15.041 4.36197 14.904L4.17197 14.696L3.99697 14.49ZM12.473 0.729957C12.499 0.671432 12.5414 0.621705 12.5951 0.586803C12.6488 0.551902 12.7114 0.533325 12.7755 0.533325C12.8395 0.533325 12.9022 0.551902 12.9559 0.586803C13.0096 0.621705 13.052 0.671432 13.078 0.729957L13.228 1.06596L13.376 1.37996L13.571 1.76996L13.797 2.18996L13.909 2.38596C14.9051 4.10511 16.2284 5.61248 17.804 6.82296L18.231 7.13996C18.6758 7.45728 19.1375 7.75038 19.614 8.01796C19.6631 8.0455 19.704 8.08564 19.7325 8.13424C19.7609 8.18283 19.7759 8.23814 19.7759 8.29446C19.7759 8.35078 19.7609 8.40608 19.7325 8.45468C19.704 8.50328 19.6631 8.54341 19.614 8.57096C19.2441 8.77915 18.8832 9.00267 18.532 9.24096L18.172 9.49196C16.4353 10.7445 14.9827 12.3495 13.909 14.202L13.778 14.434C13.637 14.688 13.502 14.947 13.376 15.209L13.229 15.523L13.079 15.859C13.0531 15.9178 13.0107 15.9678 12.9569 16.0029C12.9031 16.038 12.8402 16.0567 12.776 16.0567C12.7117 16.0567 12.6489 16.038 12.5951 16.0029C12.5412 15.9678 12.4988 15.9178 12.473 15.859L12.323 15.523L12.175 15.209L11.979 14.819L11.754 14.399L11.641 14.203C10.6451 12.4839 9.32221 10.9765 7.74697 9.76596L7.31897 9.44996C6.87451 9.13192 6.41317 8.83815 5.93697 8.56996C5.88808 8.54234 5.84741 8.50223 5.81911 8.45374C5.79081 8.40525 5.77589 8.3501 5.77589 8.29396C5.77589 8.23781 5.79081 8.18267 5.81911 8.13418C5.84741 8.08568 5.88808 8.04557 5.93697 8.01796C6.30675 7.81006 6.66773 7.58686 7.01897 7.34896L7.37897 7.09696C9.11519 5.8443 10.5675 4.23933 11.641 2.38696L11.773 2.15496C11.914 1.90096 12.048 1.64296 12.175 1.37996L12.322 1.06596L12.473 0.729957ZM12.775 4.34496C11.7688 5.84569 10.5327 7.17867 9.11197 8.29496C10.5327 9.41123 11.7688 10.7442 12.775 12.245C13.7811 10.7442 15.0172 9.4112 16.438 8.29496C15.0172 7.1787 13.7811 5.84571 12.775 4.34496Z" fill="#030D1B"/>
</svg>
