<svg width="199" height="60" viewBox="0 0 199 60" fill="none" xmlns="http://www.w3.org/2000/svg">
<mask id="mask0_1510_1024" style="mask-type:luminance" maskUnits="userSpaceOnUse" x="0" y="0" width="198" height="60">
<path fill-rule="evenodd" clip-rule="evenodd" d="M0.401367 0H197.907V59.9999H0.401367V0Z" fill="white"/>
</mask>
<g mask="url(#mask0_1510_1024)">
<path fill-rule="evenodd" clip-rule="evenodd" d="M190.592 60H7.71638C3.61997 60 0.401367 56.7 0.401367 52.5V7.5C0.401367 3.3 3.61997 0 7.71638 0H190.592C194.688 0 197.907 3.3 197.907 7.5V52.5C197.907 56.7 194.688 60 190.592 60Z" fill="black"/>
</g>
<mask id="mask1_1510_1024" style="mask-type:luminance" maskUnits="userSpaceOnUse" x="0" y="0" width="198" height="60">
<path fill-rule="evenodd" clip-rule="evenodd" d="M0.401367 60H197.907V0H0.401367V60Z" fill="white"/>
</mask>
<g mask="url(#mask1_1510_1024)">
<path fill-rule="evenodd" clip-rule="evenodd" d="M50.9042 11.3581C51.7871 10.453 52.8181 10 54.1422 10C54.7322 10 55.3216 10.1513 55.9101 10.453C56.4965 10.7536 56.9406 11.0562 57.2371 11.5123L57.2489 11.5304L57.2338 11.5459L56.5023 12.2959L56.4807 12.318L56.4617 12.2936C56.1715 11.9217 55.8458 11.6622 55.4663 11.4955C55.0866 11.3286 54.6516 11.254 54.1422 11.254C53.2703 11.254 52.4014 11.5519 51.8227 12.2936L51.8189 12.2984L51.8185 12.2979C51.0954 12.891 50.8043 13.7818 50.8043 14.827C50.8043 15.8722 51.0954 16.763 51.8185 17.3561C52.5489 17.9553 53.2742 18.4 54.1422 18.4C54.6515 18.4 55.0867 18.3254 55.485 18.1584C55.8833 17.9913 56.2461 17.7312 56.61 17.3581C57.0391 16.9181 57.3267 16.3337 57.3337 15.604H54.1422H54.1152V15.577V14.377V14.35H54.1422H58.3849H58.4119V14.377V14.977C58.4119 16.181 58.1183 17.239 57.3801 17.9959C56.4973 18.901 55.4663 19.354 54.1422 19.354C52.8181 19.354 51.7871 18.901 50.9042 17.9959C50.0214 17.0907 49.5799 16.0339 49.5799 14.677C49.5799 13.3201 50.0214 12.2633 50.9042 11.3581ZM90.259 11.3581C91.1418 10.453 92.1729 10 93.497 10C94.821 10 95.8521 10.453 96.7349 11.3581C97.6177 12.2633 98.0593 13.3201 98.0593 14.677C98.0593 16.0339 97.6177 17.0907 96.7349 17.9959C95.8521 18.901 94.821 19.354 93.497 19.354C92.1729 19.354 91.1418 18.901 90.259 17.9959C89.3762 17.0907 88.9347 16.0339 88.9347 14.677C88.9347 13.3201 89.3762 12.2633 90.259 11.3581ZM59.9672 10.15H59.9942H65.1147H65.1417V10.177V11.227V11.254H65.1147H61.1916V14.05H64.8221H64.8491V14.077V15.127V15.154H64.8221H61.1916V17.95H65.1147H65.1417V17.977V19.177V19.204H65.1147H59.9942H59.9672V19.177V10.177V10.15ZM66.2581 10.15H66.2851H72.4297H72.4567V10.177V11.227V11.254H72.4297H69.9696V19.177V19.204H69.9426H68.7722H68.7452V19.177V11.254H66.2851H66.2581V11.227V10.177V10.15ZM76.6454 10.15H76.6724H77.8428H77.8698V10.177V19.177V19.204H77.8428H76.6724H76.6454V19.177V10.177V10.15ZM79.1325 10.15H79.1595H85.1578H85.1848V10.177V11.227V11.254H85.1578H82.6977V19.15H82.817V19.177V19.204H82.6707H82.6437H81.6466H81.6196V19.177V11.254H79.1595H79.1325V11.227V10.177V10.15ZM99.6146 10.15H99.6416H100.958H100.974L100.981 10.1631L105.174 17.1298V10.177V10.15H105.201H106.371H106.398V10.177V19.177V19.204H106.371H105.201H105.186L105.178 19.1912L100.693 11.9222V19.177V19.204H100.666H99.6416H99.6146V19.177V10.177V10.15ZM93.497 11.104C92.6251 11.104 91.7562 11.4019 91.1774 12.1436L91.1756 12.146L91.1755 12.1459C90.5948 12.7412 90.1591 13.6346 90.1591 14.677C90.1591 15.7222 90.4502 16.613 91.1733 17.2061L91.1756 17.208L91.1755 17.2081C91.7567 17.804 92.6278 18.25 93.497 18.25C94.3689 18.25 95.2377 17.9521 95.8165 17.2104L95.8183 17.208L95.8184 17.2081C96.3991 16.6128 96.8349 15.7194 96.8349 14.677C96.8349 13.6318 96.5437 12.741 95.8206 12.1479L95.8183 12.146L95.8184 12.1459C95.2373 11.55 94.3661 11.104 93.497 11.104ZM145.434 44.6769H148.213V25.9269H145.434V44.6769ZM170.012 32.6769L166.94 40.7769H166.793L163.575 32.6769H160.649L165.477 44.0769L162.697 50.3769H165.477L172.938 32.6769H170.012ZM154.65 42.5769C153.773 42.5769 152.456 42.1269 152.456 40.9269C152.456 39.4269 154.065 38.9769 155.382 38.9769C156.434 38.9769 157.013 39.2194 157.651 39.4863L157.652 39.4867C157.723 39.5166 157.795 39.5468 157.869 39.5769C157.576 41.3769 156.113 42.5769 154.65 42.5769ZM154.943 32.2269C152.895 32.2269 150.847 33.1269 150.115 35.0769L152.602 36.1269C153.187 35.0769 154.065 34.7769 155.089 34.7769C156.552 34.7769 157.869 35.6769 158.015 37.1769V37.3269C157.576 37.0269 156.406 36.5769 155.236 36.5769C152.602 36.5769 149.969 38.0769 149.969 40.7769C149.969 43.3269 152.163 44.9769 154.504 44.9769C156.406 44.9769 157.284 44.0769 158.015 43.1769H158.162V44.6769H160.795V37.4769C160.502 34.1769 158.015 32.2269 154.943 32.2269ZM138.119 34.9269H134.168V28.4769H138.119C140.167 28.4769 141.337 30.2769 141.337 31.6269C141.191 33.2769 140.02 34.9269 138.119 34.9269ZM137.972 25.9269H131.389V44.6769H134.168V37.6269H137.972C141.045 37.6269 143.971 35.3769 143.971 31.7769C143.971 28.1769 141.045 25.9269 137.972 25.9269ZM102.275 42.5769C100.373 42.5769 98.7638 40.9269 98.7638 38.6769C98.7638 36.4269 100.373 34.7769 102.275 34.7769C104.177 34.7769 105.64 36.4269 105.64 38.6769C105.64 40.9269 104.177 42.5769 102.275 42.5769ZM105.494 33.7269C104.762 32.9769 103.592 32.2269 102.129 32.2269C99.0564 32.2269 96.1304 35.0769 96.1304 38.6769C96.1304 42.2769 98.9101 44.9769 102.129 44.9769C103.592 44.9769 104.762 44.2269 105.347 43.4769H105.494V44.3769C105.494 46.7769 104.177 48.1269 102.129 48.1269C100.519 48.1269 99.349 46.9269 99.0564 45.8769L96.7156 46.9269C97.4471 48.5769 99.2027 50.6769 102.275 50.6769C105.494 50.6769 108.127 48.7269 108.127 44.0769V32.6769H105.494V33.7269ZM109.883 44.6769H112.662V25.9269H109.883V44.6769ZM116.759 38.5269C116.759 36.1269 118.661 34.7769 119.977 34.7769C121.001 34.7769 122.026 35.3769 122.318 36.1269L116.759 38.5269ZM125.244 36.4269C124.659 34.9269 123.196 32.3769 119.977 32.3769C116.759 32.3769 114.125 34.9269 114.125 38.8269C114.125 42.4269 116.759 45.2769 120.27 45.2769C123.05 45.2769 124.805 43.4769 125.39 42.4269L123.342 40.9269C122.611 41.9769 121.733 42.7269 120.27 42.7269C118.807 42.7269 117.929 42.1269 117.198 40.7769L125.537 37.1769L125.244 36.4269ZM58.8238 34.3269V37.0269H65.1147C64.9684 38.5269 64.3832 39.7269 63.6517 40.4769C62.7739 41.3769 61.3109 42.4269 58.8238 42.4269C54.8737 42.4269 51.9477 39.2769 51.9477 35.2269C51.9477 31.1769 55.02 28.0269 58.8238 28.0269C60.872 28.0269 62.4813 28.9269 63.6517 29.9769L65.5536 28.0269C63.9443 26.5269 61.8961 25.3269 58.9701 25.3269C53.7033 25.3269 49.168 29.8269 49.168 35.2269C49.168 40.6269 53.7033 45.1269 58.9701 45.1269C61.8961 45.1269 63.9443 44.2269 65.6999 42.2769C67.4555 40.4769 68.0407 37.9269 68.0407 35.9769V35.9769C68.0407 35.3769 68.0407 34.7769 67.8944 34.3269H58.8238ZM75.0631 42.5769C73.1612 42.5769 71.5519 40.9269 71.5519 38.6769C71.5519 36.4269 73.1612 34.7769 75.0631 34.7769C76.965 34.7769 78.5743 36.2769 78.5743 38.6769C78.5743 40.9269 76.965 42.5769 75.0631 42.5769ZM75.0631 32.3769C71.5519 32.3769 68.7722 35.0769 68.7722 38.8269C68.7722 42.4269 71.5519 45.2769 75.0631 45.2769C78.5743 45.2769 81.354 42.5769 81.354 38.8269C81.354 34.9269 78.5743 32.3769 75.0631 32.3769ZM88.6691 42.5769C86.7671 42.5769 85.1578 40.9269 85.1578 38.6769C85.1578 36.4269 86.7671 34.7769 88.6691 34.7769C90.571 34.7769 92.1803 36.2769 92.1803 38.6769C92.1803 40.9269 90.571 42.5769 88.6691 42.5769ZM88.669 32.3769C85.1578 32.3769 82.3781 35.0769 82.3781 38.8269C82.3781 42.4269 85.1578 45.2769 88.669 45.2769C92.1803 45.2769 94.96 42.5769 94.96 38.8269C94.96 34.9269 92.1803 32.3769 88.669 32.3769Z" fill="white"/>
</g>
<path d="M35.5886 29.3895L32.5595 27.6395L30.0678 30.0512L32.3453 32.2545L35.5886 30.3795C35.6756 30.3297 35.7478 30.2577 35.7979 30.1709C35.8479 30.0841 35.8741 29.9855 35.8736 29.8853C35.8744 29.7848 35.8484 29.6859 35.7983 29.5988C35.7482 29.5117 35.6758 29.4394 35.5886 29.3895ZM32.0453 27.342L28.712 25.4153L21.407 21.667L29.6578 29.6537L32.0453 27.342ZM21.5278 38.317L28.7245 34.3478L31.8311 32.552L29.6578 30.4487L21.5278 38.317ZM20.9195 21.9903L20.9111 38.1195L29.247 30.0512L20.9195 21.9903Z" fill="white"/>
</svg>
