<svg width="20" height="20" viewBox="0 0 20 20" fill="none" xmlns="http://www.w3.org/2000/svg">
<path d="M9.99999 17C10.2652 17 10.5196 17.1054 10.7071 17.2929C10.8946 17.4804 11 17.7348 11 18V19C11 19.2652 10.8946 19.5196 10.7071 19.7071C10.5196 19.8946 10.2652 20 9.99999 20C9.73477 20 9.48042 19.8946 9.29288 19.7071C9.10535 19.5196 8.99999 19.2652 8.99999 19V18C8.99999 17.7348 9.10535 17.4804 9.29288 17.2929C9.48042 17.1054 9.73477 17 9.99999 17ZM16.364 14.95L17.071 15.657C17.2531 15.8456 17.3539 16.0982 17.3517 16.3604C17.3494 16.6226 17.2442 16.8734 17.0588 17.0588C16.8734 17.2442 16.6226 17.3494 16.3604 17.3517C16.0982 17.354 15.8456 17.2532 15.657 17.071L14.95 16.364C14.7678 16.1754 14.667 15.9228 14.6693 15.6606C14.6716 15.3984 14.7768 15.1476 14.9622 14.9622C15.1476 14.7768 15.3984 14.6716 15.6606 14.6693C15.9228 14.667 16.1754 14.7678 16.364 14.95ZM3.63599 14.95C3.81595 14.7707 4.05743 14.6665 4.31137 14.6588C4.56532 14.651 4.8127 14.7402 5.00327 14.9082C5.19384 15.0763 5.3133 15.3106 5.33739 15.5635C5.36148 15.8164 5.2884 16.069 5.13299 16.27L5.04999 16.364L4.34299 17.071C4.16303 17.2503 3.92156 17.3545 3.66761 17.3622C3.41366 17.37 3.16628 17.2808 2.97571 17.1128C2.78515 16.9447 2.66569 16.7104 2.64159 16.4575C2.6175 16.2046 2.69058 15.952 2.84599 15.751L2.92899 15.657L3.63599 14.95ZM9.99999 4C11.5913 4 13.1174 4.63214 14.2426 5.75736C15.3679 6.88258 16 8.4087 16 10C16 11.5913 15.3679 13.1174 14.2426 14.2426C13.1174 15.3679 11.5913 16 9.99999 16C8.40869 16 6.88257 15.3679 5.75735 14.2426C4.63213 13.1174 3.99999 11.5913 3.99999 10C3.99999 8.4087 4.63213 6.88258 5.75735 5.75736C6.88257 4.63214 8.40869 4 9.99999 4ZM9.99999 6C8.93912 6 7.92171 6.42143 7.17156 7.17157C6.42142 7.92172 5.99999 8.93913 5.99999 10C5.99999 11.0609 6.42142 12.0783 7.17156 12.8284C7.92171 13.5786 8.93912 14 9.99999 14C11.0609 14 12.0783 13.5786 12.8284 12.8284C13.5786 12.0783 14 11.0609 14 10C14 8.93913 13.5786 7.92172 12.8284 7.17157C12.0783 6.42143 11.0609 6 9.99999 6ZM1.99999 9C2.25487 9.00028 2.50002 9.09788 2.68536 9.27285C2.8707 9.44782 2.98223 9.68695 2.99716 9.94139C3.0121 10.1958 2.92932 10.4464 2.76573 10.6418C2.60214 10.8373 2.37009 10.9629 2.11699 10.993L1.99999 11H0.999991C0.745111 10.9997 0.499959 10.9021 0.314622 10.7272C0.129286 10.5522 0.0177558 10.313 0.00281867 10.0586C-0.0121185 9.80416 0.0706654 9.55362 0.234256 9.35817C0.397846 9.16271 0.629895 9.0371 0.882991 9.007L0.999991 9H1.99999ZM19 9C19.2652 9 19.5196 9.10536 19.7071 9.29289C19.8946 9.48043 20 9.73478 20 10C20 10.2652 19.8946 10.5196 19.7071 10.7071C19.5196 10.8946 19.2652 11 19 11H18C17.7348 11 17.4804 10.8946 17.2929 10.7071C17.1053 10.5196 17 10.2652 17 10C17 9.73478 17.1053 9.48043 17.2929 9.29289C17.4804 9.10536 17.7348 9 18 9H19ZM2.92899 2.929C3.10118 2.75682 3.33028 2.65339 3.57331 2.63811C3.81634 2.62283 4.05659 2.69675 4.24899 2.846L4.34299 2.929L5.04999 3.636C5.22934 3.81596 5.33346 4.05743 5.34122 4.31138C5.34897 4.56533 5.25978 4.81271 5.09174 5.00328C4.92371 5.19384 4.68944 5.31331 4.43652 5.3374C4.18359 5.36149 3.93098 5.28841 3.72999 5.133L3.63599 5.05L2.92899 4.343C2.74152 4.15547 2.6362 3.90116 2.6362 3.636C2.6362 3.37084 2.74152 3.11653 2.92899 2.929ZM17.071 2.929C17.2585 3.11653 17.3638 3.37084 17.3638 3.636C17.3638 3.90116 17.2585 4.15547 17.071 4.343L16.364 5.05C16.2717 5.14551 16.1614 5.22169 16.0394 5.2741C15.9174 5.32651 15.7862 5.3541 15.6534 5.35525C15.5206 5.3564 15.3889 5.3311 15.266 5.28082C15.1431 5.23054 15.0315 5.15629 14.9376 5.0624C14.8437 4.9685 14.7695 4.85685 14.7192 4.73395C14.6689 4.61106 14.6436 4.47938 14.6447 4.3466C14.6459 4.21382 14.6735 4.0826 14.7259 3.9606C14.7783 3.83859 14.8545 3.72825 14.95 3.636L15.657 2.929C15.8445 2.74153 16.0988 2.63621 16.364 2.63621C16.6292 2.63621 16.8835 2.74153 17.071 2.929ZM9.99999 0C10.2652 0 10.5196 0.105357 10.7071 0.292893C10.8946 0.48043 11 0.734784 11 1V2C11 2.26522 10.8946 2.51957 10.7071 2.70711C10.5196 2.89464 10.2652 3 9.99999 3C9.73477 3 9.48042 2.89464 9.29288 2.70711C9.10535 2.51957 8.99999 2.26522 8.99999 2V1C8.99999 0.734784 9.10535 0.48043 9.29288 0.292893C9.48042 0.105357 9.73477 0 9.99999 0Z" fill="#030D1B"/>
</svg>
