<svg width="594" height="400" viewBox="0 0 594 400" fill="none" xmlns="http://www.w3.org/2000/svg">
<g filter="url(#filter0_d_1540_11795)">
<path d="M55.5232 328.05C54.8607 327.916 54.419 327.328 54.281 327.05H87.2002C87.0622 327.328 86.6205 327.916 85.958 328.05C85.8889 328.439 85.5853 329.216 84.9228 329.216H56.5584C55.8959 329.216 55.5922 328.439 55.5232 328.05Z" fill="url(#paint0_linear_1540_11795)"/>
<path fill-rule="evenodd" clip-rule="evenodd" d="M55.5543 328.187V328.133H85.9414C85.8471 328.54 85.5413 329.217 84.9234 329.217H56.559C55.9677 329.217 55.6622 328.597 55.5543 328.187Z" fill="url(#paint1_linear_1540_11795)"/>
<path d="M468.273 328.05C467.611 327.916 467.169 327.328 467.031 327.05H499.95C499.812 327.328 499.37 327.916 498.708 328.05C498.639 328.439 498.335 329.216 497.673 329.216H469.308C468.646 329.216 468.342 328.439 468.273 328.05Z" fill="url(#paint2_linear_1540_11795)"/>
<path fill-rule="evenodd" clip-rule="evenodd" d="M468.303 328.186V328.133H498.69C498.596 328.54 498.29 329.217 497.672 329.217H469.308C468.716 329.217 468.411 328.595 468.303 328.186Z" fill="url(#paint3_linear_1540_11795)"/>
<mask id="mask0_1540_11795" style="mask-type:alpha" maskUnits="userSpaceOnUse" x="30" y="314" width="494" height="14">
<path d="M30.0001 316.214V314.917H524V316.214C524 320.007 524 321.904 522.937 323.352C522.003 324.626 520.511 325.662 518.676 326.312C516.591 327.05 513.861 327.05 508.4 327.05H45.6001C40.1396 327.05 37.4093 327.05 35.3237 326.312C33.4891 325.662 31.9976 324.626 31.0628 323.352C30.0001 321.904 30.0001 320.007 30.0001 316.214Z" fill="white"/>
</mask>
<g mask="url(#mask0_1540_11795)">
<path d="M30.0001 316.214V314.917H524V316.214C524 320.007 524 321.904 522.937 323.352C522.003 324.626 520.511 325.662 518.676 326.312C516.591 327.05 513.861 327.05 508.4 327.05H45.6001C40.1396 327.05 37.4093 327.05 35.3237 326.312C33.4891 325.662 31.9976 324.626 31.0628 323.352C30.0001 321.904 30.0001 320.007 30.0001 316.214Z" fill="url(#paint4_linear_1540_11795)"/>
<rect width="55.4667" height="12.1333" transform="matrix(-1 0 0 1 85.4668 314.917)" fill="url(#paint5_linear_1540_11795)"/>
<rect x="468.1" y="314.917" width="55.9" height="12.1333" fill="url(#paint6_linear_1540_11795)"/>
<g filter="url(#filter1_f_1540_11795)">
<path d="M522.917 312.75H516.634V319.142C516.634 320.877 518.04 322.283 519.775 322.283C521.51 322.283 522.917 320.877 522.917 319.142V312.75Z" fill="url(#paint7_linear_1540_11795)"/>
</g>
<g filter="url(#filter2_f_1540_11795)">
<path d="M31.083 312.75H37.3663V319.142C37.3663 320.877 35.9598 322.283 34.2247 322.283C32.4896 322.283 31.083 320.877 31.083 319.142V312.75Z" fill="url(#paint8_linear_1540_11795)"/>
</g>
</g>
<path d="M321.417 314.917H232.584C232.584 318.267 235.3 320.983 238.65 320.983H315.35C318.701 320.983 321.417 318.267 321.417 314.917Z" fill="url(#paint9_linear_1540_11795)"/>
<mask id="mask1_1540_11795" style="mask-type:alpha" maskUnits="userSpaceOnUse" x="70" y="301" width="414" height="14">
<path d="M482.983 311.667V306.25C482.983 303.894 481.073 301.983 478.717 301.983H74.8501C72.4937 301.983 70.5835 303.894 70.5835 306.25V311.667C70.5835 313.186 71.8147 314.417 73.3335 314.417H480.233C481.752 314.417 482.983 313.186 482.983 311.667Z" fill="black" stroke="black"/>
</mask>
<g mask="url(#mask1_1540_11795)">
<g filter="url(#filter3_d_1540_11795)">
<path d="M79.8335 314.917H76.8948C75.8259 314.917 74.7122 314.866 73.8851 314.189C68.8348 310.054 75.9788 305.57 77.6246 311.886C78.0656 313.579 78.6313 314.847 79.8335 314.917Z" fill="#141311"/>
<path d="M78.1153 314.417H76.8948C75.8066 314.417 74.8729 314.352 74.2019 313.802C73.0154 312.831 72.6189 311.902 72.6073 311.188C72.5957 310.474 72.965 309.882 73.5084 309.543C74.0519 309.204 74.7584 309.127 75.4156 309.449C76.0713 309.77 76.7546 310.53 77.1408 312.013C77.3634 312.867 77.6309 313.673 78.0235 314.281C78.0532 314.327 78.0838 314.372 78.1153 314.417Z" stroke="black"/>
</g>
<g filter="url(#filter4_d_1540_11795)">
<path d="M473.714 314.917H476.653C477.722 314.917 478.836 314.866 479.663 314.189C484.713 310.054 477.569 305.57 475.923 311.886C475.482 313.579 474.917 314.847 473.714 314.917Z" fill="#141311"/>
<path d="M475.433 314.417H476.653C477.741 314.417 478.675 314.352 479.346 313.802C480.532 312.831 480.929 311.902 480.941 311.188C480.952 310.474 480.583 309.882 480.039 309.543C479.496 309.204 478.789 309.127 478.132 309.449C477.477 309.77 476.793 310.53 476.407 312.013C476.184 312.867 475.917 313.673 475.524 314.281C475.495 314.327 475.464 314.372 475.433 314.417Z" stroke="black"/>
</g>
</g>
<path d="M461 30.5H93C82.2305 30.5 73.5 39.2304 73.5 50V294C73.5 304.77 82.2305 313.5 93 313.5H461C471.77 313.5 480.5 304.77 480.5 294V50C480.5 39.2304 471.77 30.5 461 30.5Z" fill="black" stroke="black"/>
<g filter="url(#filter5_ii_1540_11795)">
<path d="M79.6172 314.917C75.7945 314.917 72.6943 311.452 72.6839 307.173C72.6839 304.749 74.6492 302.784 77.0735 302.784H476.516C478.928 302.784 480.884 304.739 480.884 307.152C480.884 311.44 477.78 314.917 473.95 314.917H79.6172Z" fill="url(#paint10_linear_1540_11795)"/>
</g>
<path d="M73.1839 307.172C73.1938 311.23 76.1218 314.417 79.6172 314.417H473.95C477.452 314.417 480.384 311.219 480.384 307.152C480.384 305.015 478.652 303.284 476.516 303.284H77.0735C74.9258 303.284 73.1845 305.024 73.1839 307.172Z" stroke="black"/>
<rect x="-0.5" y="0.5" width="393.333" height="255.317" rx="19.5" transform="matrix(-1 0 0 1 472.95 38.4497)" fill="white"/>
<rect x="-0.5" y="0.5" width="393.333" height="255.317" rx="19.5" transform="matrix(-1 0 0 1 472.95 38.4497)" stroke="black"/>
<path d="M200.074 161.364L203.528 171.159H203.665L207.119 161.364H208.597L204.324 173H202.869L198.597 161.364H200.074ZM210.227 173V164.273H211.568V173H210.227ZM210.909 162.818C210.648 162.818 210.422 162.729 210.233 162.551C210.047 162.373 209.955 162.159 209.955 161.909C209.955 161.659 210.047 161.445 210.233 161.267C210.422 161.089 210.648 161 210.909 161C211.17 161 211.394 161.089 211.58 161.267C211.769 161.445 211.864 161.659 211.864 161.909C211.864 162.159 211.769 162.373 211.58 162.551C211.394 162.729 211.17 162.818 210.909 162.818ZM217.32 173.182C216.592 173.182 215.95 172.998 215.393 172.631C214.837 172.259 214.401 171.737 214.087 171.062C213.772 170.384 213.615 169.583 213.615 168.659C213.615 167.742 213.772 166.947 214.087 166.273C214.401 165.598 214.839 165.078 215.399 164.71C215.96 164.343 216.607 164.159 217.342 164.159C217.911 164.159 218.359 164.254 218.689 164.443C219.022 164.629 219.276 164.841 219.45 165.08C219.628 165.314 219.767 165.508 219.865 165.659H219.979V161.364H221.32V173H220.024V171.659H219.865C219.767 171.818 219.626 172.019 219.445 172.261C219.263 172.5 219.003 172.714 218.666 172.903C218.329 173.089 217.88 173.182 217.32 173.182ZM217.501 171.977C218.039 171.977 218.494 171.837 218.865 171.557C219.236 171.273 219.518 170.881 219.712 170.381C219.905 169.877 220.001 169.295 220.001 168.636C220.001 167.985 219.907 167.415 219.717 166.926C219.528 166.434 219.248 166.051 218.876 165.778C218.505 165.502 218.047 165.364 217.501 165.364C216.933 165.364 216.46 165.509 216.081 165.801C215.706 166.089 215.424 166.481 215.234 166.977C215.049 167.47 214.956 168.023 214.956 168.636C214.956 169.258 215.051 169.822 215.24 170.33C215.433 170.833 215.717 171.235 216.092 171.534C216.471 171.83 216.941 171.977 217.501 171.977ZM227.621 173.182C226.78 173.182 226.054 172.996 225.445 172.625C224.839 172.25 224.371 171.727 224.041 171.057C223.715 170.383 223.553 169.598 223.553 168.705C223.553 167.811 223.715 167.023 224.041 166.341C224.371 165.655 224.829 165.121 225.416 164.739C226.007 164.352 226.696 164.159 227.484 164.159C227.939 164.159 228.388 164.235 228.831 164.386C229.274 164.538 229.678 164.784 230.041 165.125C230.405 165.462 230.695 165.909 230.911 166.466C231.126 167.023 231.234 167.708 231.234 168.523V169.091H224.507V167.932H229.871C229.871 167.439 229.772 167 229.575 166.614C229.382 166.227 229.106 165.922 228.746 165.699C228.39 165.475 227.969 165.364 227.484 165.364C226.95 165.364 226.488 165.496 226.098 165.761C225.712 166.023 225.414 166.364 225.206 166.784C224.998 167.205 224.893 167.655 224.893 168.136V168.909C224.893 169.568 225.007 170.127 225.234 170.585C225.465 171.04 225.786 171.386 226.195 171.625C226.604 171.86 227.079 171.977 227.621 171.977C227.973 171.977 228.291 171.928 228.575 171.83C228.863 171.727 229.111 171.576 229.32 171.375C229.528 171.17 229.689 170.917 229.803 170.614L231.098 170.977C230.962 171.417 230.732 171.803 230.411 172.136C230.089 172.466 229.691 172.723 229.217 172.909C228.744 173.091 228.212 173.182 227.621 173.182ZM236.82 173.182C236.032 173.182 235.34 172.994 234.746 172.619C234.155 172.244 233.693 171.72 233.359 171.045C233.03 170.371 232.865 169.583 232.865 168.682C232.865 167.773 233.03 166.979 233.359 166.301C233.693 165.623 234.155 165.097 234.746 164.722C235.34 164.347 236.032 164.159 236.82 164.159C237.607 164.159 238.297 164.347 238.888 164.722C239.482 165.097 239.945 165.623 240.274 166.301C240.607 166.979 240.774 167.773 240.774 168.682C240.774 169.583 240.607 170.371 240.274 171.045C239.945 171.72 239.482 172.244 238.888 172.619C238.297 172.994 237.607 173.182 236.82 173.182ZM236.82 171.977C237.418 171.977 237.911 171.824 238.297 171.517C238.683 171.21 238.969 170.807 239.155 170.307C239.34 169.807 239.433 169.265 239.433 168.682C239.433 168.098 239.34 167.555 239.155 167.051C238.969 166.547 238.683 166.14 238.297 165.83C237.911 165.519 237.418 165.364 236.82 165.364C236.221 165.364 235.729 165.519 235.342 165.83C234.956 166.14 234.67 166.547 234.484 167.051C234.299 167.555 234.206 168.098 234.206 168.682C234.206 169.265 234.299 169.807 234.484 170.307C234.67 170.807 234.956 171.21 235.342 171.517C235.729 171.824 236.221 171.977 236.82 171.977ZM250.616 173.182C249.889 173.182 249.247 172.998 248.69 172.631C248.134 172.259 247.698 171.737 247.384 171.062C247.069 170.384 246.912 169.583 246.912 168.659C246.912 167.742 247.069 166.947 247.384 166.273C247.698 165.598 248.135 165.078 248.696 164.71C249.257 164.343 249.904 164.159 250.639 164.159C251.207 164.159 251.656 164.254 251.986 164.443C252.319 164.629 252.573 164.841 252.747 165.08C252.925 165.314 253.063 165.508 253.162 165.659H253.276V161.364H254.616V173H253.321V171.659H253.162C253.063 171.818 252.923 172.019 252.741 172.261C252.56 172.5 252.3 172.714 251.963 172.903C251.626 173.089 251.177 173.182 250.616 173.182ZM250.798 171.977C251.336 171.977 251.791 171.837 252.162 171.557C252.533 171.273 252.815 170.881 253.009 170.381C253.202 169.877 253.298 169.295 253.298 168.636C253.298 167.985 253.204 167.415 253.014 166.926C252.825 166.434 252.545 166.051 252.173 165.778C251.802 165.502 251.344 165.364 250.798 165.364C250.23 165.364 249.757 165.509 249.378 165.801C249.003 166.089 248.721 166.481 248.531 166.977C248.346 167.47 248.253 168.023 248.253 168.636C248.253 169.258 248.348 169.822 248.537 170.33C248.73 170.833 249.014 171.235 249.389 171.534C249.768 171.83 250.238 171.977 250.798 171.977ZM260.918 173.182C260.077 173.182 259.351 172.996 258.741 172.625C258.135 172.25 257.668 171.727 257.338 171.057C257.012 170.383 256.849 169.598 256.849 168.705C256.849 167.811 257.012 167.023 257.338 166.341C257.668 165.655 258.126 165.121 258.713 164.739C259.304 164.352 259.993 164.159 260.781 164.159C261.236 164.159 261.685 164.235 262.128 164.386C262.571 164.538 262.974 164.784 263.338 165.125C263.702 165.462 263.991 165.909 264.207 166.466C264.423 167.023 264.531 167.708 264.531 168.523V169.091H257.804V167.932H263.168C263.168 167.439 263.069 167 262.872 166.614C262.679 166.227 262.402 165.922 262.043 165.699C261.687 165.475 261.266 165.364 260.781 165.364C260.247 165.364 259.785 165.496 259.395 165.761C259.009 166.023 258.711 166.364 258.503 166.784C258.295 167.205 258.19 167.655 258.19 168.136V168.909C258.19 169.568 258.304 170.127 258.531 170.585C258.762 171.04 259.082 171.386 259.491 171.625C259.901 171.86 260.376 171.977 260.918 171.977C261.27 171.977 261.588 171.928 261.872 171.83C262.16 171.727 262.408 171.576 262.616 171.375C262.825 171.17 262.986 170.917 263.099 170.614L264.395 170.977C264.259 171.417 264.029 171.803 263.707 172.136C263.385 172.466 262.988 172.723 262.514 172.909C262.041 173.091 261.509 173.182 260.918 173.182ZM266.571 173V164.273H267.866V165.636H267.98C268.162 165.17 268.455 164.809 268.861 164.551C269.266 164.29 269.753 164.159 270.321 164.159C270.897 164.159 271.376 164.29 271.759 164.551C272.145 164.809 272.446 165.17 272.662 165.636H272.753C272.976 165.186 273.312 164.828 273.759 164.562C274.205 164.294 274.741 164.159 275.366 164.159C276.147 164.159 276.785 164.403 277.281 164.892C277.777 165.377 278.026 166.133 278.026 167.159V173H276.685V167.159C276.685 166.515 276.509 166.055 276.156 165.778C275.804 165.502 275.389 165.364 274.912 165.364C274.298 165.364 273.823 165.549 273.486 165.92C273.149 166.288 272.98 166.754 272.98 167.318V173H271.616V167.023C271.616 166.527 271.455 166.127 271.134 165.824C270.812 165.517 270.397 165.364 269.889 165.364C269.541 165.364 269.215 165.456 268.912 165.642C268.613 165.828 268.37 166.085 268.185 166.415C268.003 166.741 267.912 167.117 267.912 167.545V173H266.571ZM284.023 173.182C283.235 173.182 282.544 172.994 281.949 172.619C281.358 172.244 280.896 171.72 280.562 171.045C280.233 170.371 280.068 169.583 280.068 168.682C280.068 167.773 280.233 166.979 280.562 166.301C280.896 165.623 281.358 165.097 281.949 164.722C282.544 164.347 283.235 164.159 284.023 164.159C284.811 164.159 285.5 164.347 286.091 164.722C286.686 165.097 287.148 165.623 287.477 166.301C287.811 166.979 287.977 167.773 287.977 168.682C287.977 169.583 287.811 170.371 287.477 171.045C287.148 171.72 286.686 172.244 286.091 172.619C285.5 172.994 284.811 173.182 284.023 173.182ZM284.023 171.977C284.621 171.977 285.114 171.824 285.5 171.517C285.886 171.21 286.172 170.807 286.358 170.307C286.544 169.807 286.636 169.265 286.636 168.682C286.636 168.098 286.544 167.555 286.358 167.051C286.172 166.547 285.886 166.14 285.5 165.83C285.114 165.519 284.621 165.364 284.023 165.364C283.424 165.364 282.932 165.519 282.545 165.83C282.159 166.14 281.873 166.547 281.688 167.051C281.502 167.555 281.409 168.098 281.409 168.682C281.409 169.265 281.502 169.807 281.688 170.307C281.873 170.807 282.159 171.21 282.545 171.517C282.932 171.824 283.424 171.977 284.023 171.977ZM291.365 167.75V173H290.024V164.273H291.32V165.636H291.433C291.638 165.193 291.948 164.837 292.365 164.568C292.782 164.295 293.32 164.159 293.979 164.159C294.57 164.159 295.087 164.28 295.53 164.523C295.973 164.761 296.318 165.125 296.564 165.614C296.81 166.098 296.933 166.712 296.933 167.455V173H295.592V167.545C295.592 166.86 295.414 166.326 295.058 165.943C294.702 165.557 294.214 165.364 293.592 165.364C293.164 165.364 292.782 165.456 292.445 165.642C292.111 165.828 291.848 166.098 291.655 166.455C291.462 166.811 291.365 167.242 291.365 167.75ZM305.565 166.227L304.361 166.568C304.285 166.367 304.173 166.172 304.026 165.983C303.882 165.79 303.685 165.631 303.435 165.506C303.185 165.381 302.865 165.318 302.474 165.318C301.94 165.318 301.495 165.441 301.139 165.688C300.787 165.93 300.611 166.239 300.611 166.614C300.611 166.947 300.732 167.21 300.974 167.403C301.217 167.597 301.596 167.758 302.111 167.886L303.406 168.205C304.187 168.394 304.768 168.684 305.151 169.074C305.533 169.46 305.724 169.958 305.724 170.568C305.724 171.068 305.58 171.515 305.293 171.909C305.009 172.303 304.611 172.614 304.099 172.841C303.588 173.068 302.993 173.182 302.315 173.182C301.425 173.182 300.688 172.989 300.105 172.602C299.522 172.216 299.152 171.652 298.997 170.909L300.27 170.591C300.391 171.061 300.62 171.413 300.957 171.648C301.298 171.883 301.743 172 302.293 172C302.918 172 303.414 171.867 303.781 171.602C304.152 171.333 304.338 171.011 304.338 170.636C304.338 170.333 304.232 170.08 304.02 169.875C303.808 169.667 303.482 169.511 303.043 169.409L301.588 169.068C300.789 168.879 300.202 168.585 299.827 168.188C299.455 167.786 299.27 167.284 299.27 166.682C299.27 166.189 299.408 165.754 299.685 165.375C299.965 164.996 300.346 164.699 300.827 164.483C301.312 164.267 301.861 164.159 302.474 164.159C303.338 164.159 304.016 164.348 304.509 164.727C305.005 165.106 305.357 165.606 305.565 166.227ZM311.538 164.273V165.409H307.016V164.273H311.538ZM308.334 162.182H309.675V170.5C309.675 170.879 309.73 171.163 309.839 171.352C309.953 171.538 310.097 171.663 310.271 171.727C310.449 171.788 310.637 171.818 310.834 171.818C310.982 171.818 311.103 171.811 311.197 171.795C311.292 171.777 311.368 171.761 311.425 171.75L311.697 172.955C311.607 172.989 311.48 173.023 311.317 173.057C311.154 173.095 310.947 173.114 310.697 173.114C310.319 173.114 309.947 173.032 309.584 172.869C309.224 172.706 308.925 172.458 308.686 172.125C308.451 171.792 308.334 171.371 308.334 170.864V162.182ZM313.555 173V164.273H314.851V165.591H314.942C315.101 165.159 315.389 164.809 315.805 164.54C316.222 164.271 316.692 164.136 317.214 164.136C317.313 164.136 317.436 164.138 317.584 164.142C317.732 164.146 317.843 164.152 317.919 164.159V165.523C317.874 165.511 317.769 165.494 317.607 165.472C317.447 165.445 317.279 165.432 317.101 165.432C316.677 165.432 316.298 165.521 315.964 165.699C315.635 165.873 315.374 166.116 315.18 166.426C314.991 166.733 314.896 167.083 314.896 167.477V173H313.555ZM322.077 173.205C321.524 173.205 321.022 173.1 320.571 172.892C320.12 172.68 319.762 172.375 319.497 171.977C319.232 171.576 319.099 171.091 319.099 170.523C319.099 170.023 319.198 169.617 319.395 169.307C319.592 168.992 319.855 168.746 320.185 168.568C320.514 168.39 320.878 168.258 321.276 168.17C321.677 168.08 322.08 168.008 322.486 167.955C323.016 167.886 323.446 167.835 323.776 167.801C324.109 167.763 324.351 167.701 324.503 167.614C324.658 167.527 324.736 167.375 324.736 167.159V167.114C324.736 166.553 324.582 166.117 324.276 165.807C323.973 165.496 323.512 165.341 322.895 165.341C322.255 165.341 321.753 165.481 321.389 165.761C321.026 166.042 320.77 166.341 320.622 166.659L319.349 166.205C319.577 165.674 319.88 165.261 320.259 164.966C320.641 164.667 321.058 164.458 321.509 164.341C321.963 164.22 322.41 164.159 322.849 164.159C323.13 164.159 323.452 164.193 323.815 164.261C324.183 164.326 324.537 164.46 324.878 164.665C325.223 164.869 325.509 165.178 325.736 165.591C325.963 166.004 326.077 166.557 326.077 167.25V173H324.736V171.818H324.668C324.577 172.008 324.425 172.21 324.213 172.426C324.001 172.642 323.719 172.826 323.366 172.977C323.014 173.129 322.584 173.205 322.077 173.205ZM322.281 172C322.812 172 323.259 171.896 323.622 171.688C323.99 171.479 324.266 171.21 324.452 170.881C324.641 170.551 324.736 170.205 324.736 169.841V168.614C324.679 168.682 324.554 168.744 324.361 168.801C324.171 168.854 323.952 168.902 323.702 168.943C323.455 168.981 323.215 169.015 322.98 169.045C322.749 169.072 322.562 169.095 322.418 169.114C322.069 169.159 321.743 169.233 321.44 169.335C321.141 169.434 320.899 169.583 320.713 169.784C320.531 169.981 320.44 170.25 320.44 170.591C320.44 171.057 320.613 171.409 320.957 171.648C321.306 171.883 321.747 172 322.281 172ZM332.32 164.273V165.409H327.797V164.273H332.32ZM329.115 162.182H330.456V170.5C330.456 170.879 330.511 171.163 330.621 171.352C330.734 171.538 330.878 171.663 331.053 171.727C331.231 171.788 331.418 171.818 331.615 171.818C331.763 171.818 331.884 171.811 331.979 171.795C332.073 171.777 332.149 171.761 332.206 171.75L332.479 172.955C332.388 172.989 332.261 173.023 332.098 173.057C331.935 173.095 331.729 173.114 331.479 173.114C331.1 173.114 330.729 173.032 330.365 172.869C330.005 172.706 329.706 172.458 329.467 172.125C329.232 171.792 329.115 171.371 329.115 170.864V162.182ZM334.337 173V164.273H335.678V173H334.337ZM335.018 162.818C334.757 162.818 334.532 162.729 334.342 162.551C334.157 162.373 334.064 162.159 334.064 161.909C334.064 161.659 334.157 161.445 334.342 161.267C334.532 161.089 334.757 161 335.018 161C335.28 161 335.503 161.089 335.689 161.267C335.878 161.445 335.973 161.659 335.973 161.909C335.973 162.159 335.878 162.373 335.689 162.551C335.503 162.729 335.28 162.818 335.018 162.818ZM341.679 173.182C340.891 173.182 340.2 172.994 339.605 172.619C339.014 172.244 338.552 171.72 338.219 171.045C337.889 170.371 337.724 169.583 337.724 168.682C337.724 167.773 337.889 166.979 338.219 166.301C338.552 165.623 339.014 165.097 339.605 164.722C340.2 164.347 340.891 164.159 341.679 164.159C342.467 164.159 343.156 164.347 343.747 164.722C344.342 165.097 344.804 165.623 345.134 166.301C345.467 166.979 345.634 167.773 345.634 168.682C345.634 169.583 345.467 170.371 345.134 171.045C344.804 171.72 344.342 172.244 343.747 172.619C343.156 172.994 342.467 173.182 341.679 173.182ZM341.679 171.977C342.277 171.977 342.77 171.824 343.156 171.517C343.543 171.21 343.829 170.807 344.014 170.307C344.2 169.807 344.293 169.265 344.293 168.682C344.293 168.098 344.2 167.555 344.014 167.051C343.829 166.547 343.543 166.14 343.156 165.83C342.77 165.519 342.277 165.364 341.679 165.364C341.08 165.364 340.588 165.519 340.202 165.83C339.815 166.14 339.529 166.547 339.344 167.051C339.158 167.555 339.065 168.098 339.065 168.682C339.065 169.265 339.158 169.807 339.344 170.307C339.529 170.807 339.815 171.21 340.202 171.517C340.588 171.824 341.08 171.977 341.679 171.977ZM349.021 167.75V173H347.68V164.273H348.976V165.636H349.089C349.294 165.193 349.605 164.837 350.021 164.568C350.438 164.295 350.976 164.159 351.635 164.159C352.226 164.159 352.743 164.28 353.186 164.523C353.629 164.761 353.974 165.125 354.22 165.614C354.466 166.098 354.589 166.712 354.589 167.455V173H353.249V167.545C353.249 166.86 353.071 166.326 352.714 165.943C352.358 165.557 351.87 165.364 351.249 165.364C350.821 165.364 350.438 165.456 350.101 165.642C349.768 165.828 349.504 166.098 349.311 166.455C349.118 166.811 349.021 167.242 349.021 167.75Z" fill="#252525"/>
<path d="M300.189 42.783C300.189 41.2217 300.93 39.8333 302.078 38.9497H251.272C252.421 39.8333 253.161 41.2217 253.161 42.783C253.161 44.9001 254.877 46.6164 256.994 46.6164H296.356C298.473 46.6164 300.189 44.9001 300.189 42.783Z" fill="black" stroke="black"/>
<g filter="url(#filter6_f_1540_11795)">
<circle cx="2.6" cy="2.6" r="2.6" transform="matrix(-1 0 0 1 279.384 37.583)" fill="#0F1316"/>
<circle cx="2.6" cy="2.6" r="2.1" transform="matrix(-1 0 0 1 279.384 37.583)" stroke="black"/>
</g>
<g filter="url(#filter7_f_1540_11795)">
<circle cx="1.95" cy="1.95" r="1.95" transform="matrix(-1 0 0 1 278.733 38.2329)" fill="#080905"/>
<circle cx="1.95" cy="1.95" r="1.45" transform="matrix(-1 0 0 1 278.733 38.2329)" stroke="black"/>
</g>
<g filter="url(#filter8_f_1540_11795)">
<mask id="path-27-inside-1_1540_11795" fill="white">
<ellipse cx="0.866666" cy="0.433333" rx="0.866666" ry="0.433333" transform="matrix(-1 0 0 1 277.65 40.1831)"/>
</mask>
<ellipse cx="0.866666" cy="0.433333" rx="0.866666" ry="0.433333" transform="matrix(-1 0 0 1 277.65 40.1831)" fill="#05111D"/>
<path d="M276.917 40.6164C276.917 40.3894 276.821 40.2254 276.749 40.1393C276.681 40.0597 276.623 40.0309 276.618 40.0284C276.609 40.0238 276.666 40.0498 276.784 40.0498V42.0498C276.423 42.0498 276.047 41.9788 275.724 41.8173C275.461 41.6857 274.917 41.3189 274.917 40.6164H276.917ZM276.784 40.0498C276.901 40.0498 276.959 40.0238 276.949 40.0284C276.944 40.0309 276.886 40.0597 276.819 40.1393C276.746 40.2254 276.65 40.3894 276.65 40.6164H278.65C278.65 41.3189 278.107 41.6857 277.844 41.8173C277.521 41.9788 277.145 42.0498 276.784 42.0498V40.0498ZM276.65 40.6164C276.65 40.8435 276.746 41.0075 276.819 41.0936C276.886 41.1732 276.944 41.202 276.949 41.2045C276.959 41.2091 276.901 41.1831 276.784 41.1831V39.1831C277.145 39.1831 277.521 39.2541 277.844 39.4156C278.107 39.5472 278.65 39.9139 278.65 40.6164H276.65ZM276.784 41.1831C276.666 41.1831 276.609 41.2091 276.618 41.2045C276.623 41.202 276.681 41.1732 276.749 41.0936C276.821 41.0075 276.917 40.8435 276.917 40.6164H274.917C274.917 39.9139 275.461 39.5472 275.724 39.4156C276.047 39.2541 276.423 39.1831 276.784 39.1831V41.1831Z" fill="black" mask="url(#path-27-inside-1_1540_11795)"/>
</g>
<g filter="url(#filter9_f_1540_11795)">
<mask id="path-29-inside-2_1540_11795" fill="white">
<ellipse cx="0.866666" cy="0.433333" rx="0.866666" ry="0.433333" transform="matrix(-1 0 0 1 277.65 39.3164)"/>
</mask>
<ellipse cx="0.866666" cy="0.433333" rx="0.866666" ry="0.433333" transform="matrix(-1 0 0 1 277.65 39.3164)" fill="#05111D"/>
<path d="M276.917 39.7497C276.917 39.5227 276.821 39.3587 276.749 39.2726C276.681 39.193 276.623 39.1642 276.618 39.1617C276.609 39.1571 276.666 39.1831 276.784 39.1831V41.1831C276.423 41.1831 276.047 41.1121 275.724 40.9506C275.461 40.819 274.917 40.4522 274.917 39.7497H276.917ZM276.784 39.1831C276.901 39.1831 276.959 39.1571 276.949 39.1617C276.944 39.1642 276.886 39.193 276.819 39.2726C276.746 39.3587 276.65 39.5227 276.65 39.7497H278.65C278.65 40.4522 278.107 40.819 277.844 40.9506C277.521 41.1121 277.145 41.1831 276.784 41.1831V39.1831ZM276.65 39.7497C276.65 39.9768 276.746 40.1408 276.819 40.2269C276.886 40.3065 276.944 40.3353 276.949 40.3378C276.959 40.3424 276.901 40.3164 276.784 40.3164V38.3164C277.145 38.3164 277.521 38.3874 277.844 38.5489C278.107 38.6805 278.65 39.0472 278.65 39.7497H276.65ZM276.784 40.3164C276.666 40.3164 276.609 40.3424 276.618 40.3378C276.623 40.3353 276.681 40.3065 276.749 40.2269C276.821 40.1408 276.917 39.9768 276.917 39.7497H274.917C274.917 39.0472 275.461 38.6805 275.724 38.5489C276.047 38.3874 276.423 38.3164 276.784 38.3164V40.3164Z" fill="black" mask="url(#path-29-inside-2_1540_11795)"/>
</g>
<g filter="url(#filter10_f_1540_11795)">
<mask id="path-31-inside-3_1540_11795" fill="white">
<ellipse cx="0.65" cy="0.325" rx="0.65" ry="0.325" transform="matrix(-1 0 0 1 277.434 40.3999)"/>
</mask>
<ellipse cx="0.65" cy="0.325" rx="0.65" ry="0.325" transform="matrix(-1 0 0 1 277.434 40.3999)" fill="#0F3455"/>
<path d="M277.134 40.7249C277.134 40.4829 277.032 40.3046 276.948 40.2056C276.87 40.113 276.796 40.0725 276.771 40.0603C276.723 40.036 276.726 40.0499 276.784 40.0499V42.0499C276.483 42.0499 276.161 41.991 275.877 41.8491C275.653 41.7372 275.134 41.3975 275.134 40.7249H277.134ZM276.784 40.0499C276.842 40.0499 276.844 40.036 276.796 40.0603C276.771 40.0725 276.697 40.113 276.619 40.2056C276.535 40.3046 276.434 40.4829 276.434 40.7249H278.434C278.434 41.3975 277.914 41.7372 277.69 41.8491C277.407 41.991 277.085 42.0499 276.784 42.0499V40.0499ZM276.434 40.7249C276.434 40.9669 276.535 41.1452 276.619 41.2442C276.697 41.3368 276.771 41.3773 276.796 41.3895C276.844 41.4138 276.842 41.3999 276.784 41.3999V39.3999C277.085 39.3999 277.407 39.4588 277.69 39.6007C277.914 39.7126 278.434 40.0523 278.434 40.7249H276.434ZM276.784 41.3999C276.726 41.3999 276.723 41.4138 276.771 41.3895C276.796 41.3773 276.87 41.3368 276.948 41.2442C277.032 41.1452 277.134 40.9669 277.134 40.7249H275.134C275.134 40.0523 275.653 39.7126 275.877 39.6007C276.161 39.4588 276.483 39.3999 276.784 39.3999V41.3999Z" fill="black" mask="url(#path-31-inside-3_1540_11795)"/>
</g>
<g filter="url(#filter11_f_1540_11795)">
<mask id="path-33-inside-4_1540_11795" fill="white">
<ellipse cx="0.65" cy="0.433333" rx="0.65" ry="0.433333" transform="matrix(-1 0 0 1 277.434 39.3164)"/>
</mask>
<ellipse cx="0.65" cy="0.433333" rx="0.65" ry="0.433333" transform="matrix(-1 0 0 1 277.434 39.3164)" fill="#0F3857"/>
<path d="M277.134 39.7497C277.134 39.431 276.94 39.2649 276.879 39.2241C276.841 39.1993 276.814 39.1899 276.802 39.1866C276.795 39.1846 276.79 39.1838 276.788 39.1834C276.785 39.1831 276.784 39.1831 276.784 39.1831V41.1831C276.434 41.1831 276.073 41.0905 275.769 40.8882C275.473 40.6906 275.134 40.3078 275.134 39.7497H277.134ZM276.784 39.1831C276.784 39.1831 276.782 39.1831 276.779 39.1834C276.777 39.1838 276.772 39.1846 276.765 39.1866C276.753 39.1899 276.726 39.1993 276.689 39.2241C276.627 39.2649 276.434 39.431 276.434 39.7497H278.434C278.434 40.3078 278.094 40.6906 277.798 40.8882C277.495 41.0905 277.133 41.1831 276.784 41.1831V39.1831ZM276.434 39.7497C276.434 40.0685 276.627 40.2346 276.689 40.2754C276.726 40.3002 276.753 40.3096 276.765 40.3129C276.772 40.3148 276.777 40.3157 276.779 40.316C276.782 40.3164 276.784 40.3164 276.784 40.3164V38.3164C277.133 38.3164 277.495 38.409 277.798 38.6113C278.094 38.8089 278.434 39.1917 278.434 39.7497H276.434ZM276.784 40.3164C276.784 40.3164 276.785 40.3164 276.788 40.316C276.79 40.3157 276.795 40.3148 276.802 40.3129C276.814 40.3096 276.841 40.3002 276.879 40.2754C276.94 40.2346 277.134 40.0685 277.134 39.7497H275.134C275.134 39.1917 275.473 38.8089 275.769 38.6113C276.073 38.409 276.434 38.3164 276.784 38.3164V40.3164Z" fill="black" mask="url(#path-33-inside-4_1540_11795)"/>
</g>
</g>
<defs>
<filter id="filter0_d_1540_11795" x="0" y="0" width="594" height="399.217" filterUnits="userSpaceOnUse" color-interpolation-filters="sRGB">
<feFlood flood-opacity="0" result="BackgroundImageFix"/>
<feColorMatrix in="SourceAlpha" type="matrix" values="0 0 0 0 0 0 0 0 0 0 0 0 0 0 0 0 0 0 127 0" result="hardAlpha"/>
<feOffset dx="20" dy="20"/>
<feGaussianBlur stdDeviation="25"/>
<feComposite in2="hardAlpha" operator="out"/>
<feColorMatrix type="matrix" values="0 0 0 0 0 0 0 0 0 0 0 0 0 0 0 0 0 0 0.3 0"/>
<feBlend mode="normal" in2="BackgroundImageFix" result="effect1_dropShadow_1540_11795"/>
<feBlend mode="normal" in="SourceGraphic" in2="effect1_dropShadow_1540_11795" result="shape"/>
</filter>
<filter id="filter1_f_1540_11795" x="510.634" y="306.75" width="18.2832" height="21.5332" filterUnits="userSpaceOnUse" color-interpolation-filters="sRGB">
<feFlood flood-opacity="0" result="BackgroundImageFix"/>
<feBlend mode="normal" in="SourceGraphic" in2="BackgroundImageFix" result="shape"/>
<feGaussianBlur stdDeviation="3" result="effect1_foregroundBlur_1540_11795"/>
</filter>
<filter id="filter2_f_1540_11795" x="25.083" y="306.75" width="18.2832" height="21.5332" filterUnits="userSpaceOnUse" color-interpolation-filters="sRGB">
<feFlood flood-opacity="0" result="BackgroundImageFix"/>
<feBlend mode="normal" in="SourceGraphic" in2="BackgroundImageFix" result="shape"/>
<feGaussianBlur stdDeviation="3" result="effect1_foregroundBlur_1540_11795"/>
</filter>
<filter id="filter3_d_1540_11795" x="71.1074" y="306.744" width="11.7266" height="10.1729" filterUnits="userSpaceOnUse" color-interpolation-filters="sRGB">
<feFlood flood-opacity="0" result="BackgroundImageFix"/>
<feColorMatrix in="SourceAlpha" type="matrix" values="0 0 0 0 0 0 0 0 0 0 0 0 0 0 0 0 0 0 127 0" result="hardAlpha"/>
<feOffset dx="1"/>
<feGaussianBlur stdDeviation="1"/>
<feComposite in2="hardAlpha" operator="out"/>
<feColorMatrix type="matrix" values="0 0 0 0 0.0784314 0 0 0 0 0.0745098 0 0 0 0 0.0666667 0 0 0 1 0"/>
<feBlend mode="normal" in2="BackgroundImageFix" result="effect1_dropShadow_1540_11795"/>
<feBlend mode="normal" in="SourceGraphic" in2="effect1_dropShadow_1540_11795" result="shape"/>
</filter>
<filter id="filter4_d_1540_11795" x="470.714" y="306.744" width="11.7266" height="10.1729" filterUnits="userSpaceOnUse" color-interpolation-filters="sRGB">
<feFlood flood-opacity="0" result="BackgroundImageFix"/>
<feColorMatrix in="SourceAlpha" type="matrix" values="0 0 0 0 0 0 0 0 0 0 0 0 0 0 0 0 0 0 127 0" result="hardAlpha"/>
<feOffset dx="-1"/>
<feGaussianBlur stdDeviation="1"/>
<feComposite in2="hardAlpha" operator="out"/>
<feColorMatrix type="matrix" values="0 0 0 0 0.0784314 0 0 0 0 0.0745098 0 0 0 0 0.0666667 0 0 0 1 0"/>
<feBlend mode="normal" in2="BackgroundImageFix" result="effect1_dropShadow_1540_11795"/>
<feBlend mode="normal" in="SourceGraphic" in2="effect1_dropShadow_1540_11795" result="shape"/>
</filter>
<filter id="filter5_ii_1540_11795" x="71.6836" y="301.784" width="410.2" height="13.1333" filterUnits="userSpaceOnUse" color-interpolation-filters="sRGB">
<feFlood flood-opacity="0" result="BackgroundImageFix"/>
<feBlend mode="normal" in="SourceGraphic" in2="BackgroundImageFix" result="shape"/>
<feColorMatrix in="SourceAlpha" type="matrix" values="0 0 0 0 0 0 0 0 0 0 0 0 0 0 0 0 0 0 127 0" result="hardAlpha"/>
<feOffset dx="-1" dy="-1"/>
<feGaussianBlur stdDeviation="1"/>
<feComposite in2="hardAlpha" operator="arithmetic" k2="-1" k3="1"/>
<feColorMatrix type="matrix" values="0 0 0 0 0 0 0 0 0 0 0 0 0 0 0 0 0 0 0.5 0"/>
<feBlend mode="normal" in2="shape" result="effect1_innerShadow_1540_11795"/>
<feColorMatrix in="SourceAlpha" type="matrix" values="0 0 0 0 0 0 0 0 0 0 0 0 0 0 0 0 0 0 127 0" result="hardAlpha"/>
<feOffset dx="1" dy="-1"/>
<feGaussianBlur stdDeviation="1"/>
<feComposite in2="hardAlpha" operator="arithmetic" k2="-1" k3="1"/>
<feColorMatrix type="matrix" values="0 0 0 0 0 0 0 0 0 0 0 0 0 0 0 0 0 0 0.5 0"/>
<feBlend mode="normal" in2="effect1_innerShadow_1540_11795" result="effect2_innerShadow_1540_11795"/>
</filter>
<filter id="filter6_f_1540_11795" x="272.184" y="35.583" width="9.2002" height="9.2002" filterUnits="userSpaceOnUse" color-interpolation-filters="sRGB">
<feFlood flood-opacity="0" result="BackgroundImageFix"/>
<feBlend mode="normal" in="SourceGraphic" in2="BackgroundImageFix" result="shape"/>
<feGaussianBlur stdDeviation="1" result="effect1_foregroundBlur_1540_11795"/>
</filter>
<filter id="filter7_f_1540_11795" x="272.833" y="36.2329" width="7.90039" height="7.8999" filterUnits="userSpaceOnUse" color-interpolation-filters="sRGB">
<feFlood flood-opacity="0" result="BackgroundImageFix"/>
<feBlend mode="normal" in="SourceGraphic" in2="BackgroundImageFix" result="shape"/>
<feGaussianBlur stdDeviation="1" result="effect1_foregroundBlur_1540_11795"/>
</filter>
<filter id="filter8_f_1540_11795" x="273.917" y="38.1831" width="5.7334" height="4.8667" filterUnits="userSpaceOnUse" color-interpolation-filters="sRGB">
<feFlood flood-opacity="0" result="BackgroundImageFix"/>
<feBlend mode="normal" in="SourceGraphic" in2="BackgroundImageFix" result="shape"/>
<feGaussianBlur stdDeviation="1" result="effect1_foregroundBlur_1540_11795"/>
</filter>
<filter id="filter9_f_1540_11795" x="273.917" y="37.3164" width="5.7334" height="4.8667" filterUnits="userSpaceOnUse" color-interpolation-filters="sRGB">
<feFlood flood-opacity="0" result="BackgroundImageFix"/>
<feBlend mode="normal" in="SourceGraphic" in2="BackgroundImageFix" result="shape"/>
<feGaussianBlur stdDeviation="1" result="effect1_foregroundBlur_1540_11795"/>
</filter>
<filter id="filter10_f_1540_11795" x="274.134" y="38.3999" width="5.2998" height="4.6499" filterUnits="userSpaceOnUse" color-interpolation-filters="sRGB">
<feFlood flood-opacity="0" result="BackgroundImageFix"/>
<feBlend mode="normal" in="SourceGraphic" in2="BackgroundImageFix" result="shape"/>
<feGaussianBlur stdDeviation="1" result="effect1_foregroundBlur_1540_11795"/>
</filter>
<filter id="filter11_f_1540_11795" x="274.134" y="37.3164" width="5.2998" height="4.8667" filterUnits="userSpaceOnUse" color-interpolation-filters="sRGB">
<feFlood flood-opacity="0" result="BackgroundImageFix"/>
<feBlend mode="normal" in="SourceGraphic" in2="BackgroundImageFix" result="shape"/>
<feGaussianBlur stdDeviation="1" result="effect1_foregroundBlur_1540_11795"/>
</filter>
<linearGradient id="paint0_linear_1540_11795" x1="87.2002" y1="328.133" x2="54.281" y2="328.133" gradientUnits="userSpaceOnUse">
<stop stop-color="#8C8D91"/>
<stop offset="0.173014" stop-color="#525358"/>
<stop offset="0.31824" stop-color="#78797D"/>
<stop offset="0.465029" stop-color="#A0A0A2"/>
<stop offset="0.691458" stop-color="#9A9A9C"/>
<stop offset="0.825754" stop-color="#4F5055"/>
<stop offset="0.941311" stop-color="#9E9EA0"/>
<stop offset="1" stop-color="#848589"/>
</linearGradient>
<linearGradient id="paint1_linear_1540_11795" x1="85.9414" y1="328.675" x2="55.5543" y2="328.675" gradientUnits="userSpaceOnUse">
<stop stop-color="#575757"/>
<stop offset="0.0827846" stop-color="#2D2D2D"/>
<stop offset="0.490477" stop-color="#4E4E4E"/>
<stop offset="0.824814" stop-color="#2A2A2A"/>
<stop offset="1" stop-color="#5C5C5C"/>
</linearGradient>
<linearGradient id="paint2_linear_1540_11795" x1="499.95" y1="328.133" x2="467.031" y2="328.133" gradientUnits="userSpaceOnUse">
<stop stop-color="#8C8D91"/>
<stop offset="0.173014" stop-color="#525358"/>
<stop offset="0.31824" stop-color="#78797D"/>
<stop offset="0.465029" stop-color="#A0A0A2"/>
<stop offset="0.691458" stop-color="#9A9A9C"/>
<stop offset="0.825754" stop-color="#4F5055"/>
<stop offset="0.941311" stop-color="#9E9EA0"/>
<stop offset="1" stop-color="#848589"/>
</linearGradient>
<linearGradient id="paint3_linear_1540_11795" x1="498.69" y1="328.675" x2="468.303" y2="328.675" gradientUnits="userSpaceOnUse">
<stop stop-color="#575757"/>
<stop offset="0.0827846" stop-color="#2D2D2D"/>
<stop offset="0.490477" stop-color="#4E4E4E"/>
<stop offset="0.824814" stop-color="#2A2A2A"/>
<stop offset="1" stop-color="#5C5C5C"/>
</linearGradient>
<linearGradient id="paint4_linear_1540_11795" x1="277" y1="314.917" x2="277" y2="327.05" gradientUnits="userSpaceOnUse">
<stop stop-color="#AEAFB4"/>
<stop offset="0.192522" stop-color="#AFB0B5"/>
<stop offset="0.376094" stop-color="#AFB0B5"/>
<stop offset="0.598958" stop-color="#7D7E82"/>
<stop offset="0.713542" stop-color="#696A6F"/>
<stop offset="0.852125" stop-color="#838489"/>
<stop offset="0.931356" stop-color="#ABACB0"/>
</linearGradient>
<linearGradient id="paint5_linear_1540_11795" x1="55.4667" y1="6.2505" x2="1.89851e-08" y2="6.2505" gradientUnits="userSpaceOnUse">
<stop stop-color="#65666B" stop-opacity="0"/>
<stop offset="0.259918" stop-color="#65666B"/>
<stop offset="1" stop-color="#65666B" stop-opacity="0"/>
</linearGradient>
<linearGradient id="paint6_linear_1540_11795" x1="524" y1="321.167" x2="468.1" y2="321.167" gradientUnits="userSpaceOnUse">
<stop stop-color="#65666B" stop-opacity="0"/>
<stop offset="0.259918" stop-color="#65666B"/>
<stop offset="1" stop-color="#65666B" stop-opacity="0"/>
</linearGradient>
<linearGradient id="paint7_linear_1540_11795" x1="522.917" y1="316.019" x2="516.634" y2="316.019" gradientUnits="userSpaceOnUse">
<stop offset="0.0875682" stop-color="white" stop-opacity="0.17"/>
<stop offset="0.272185" stop-color="white" stop-opacity="0.65"/>
<stop offset="0.489769" stop-color="white" stop-opacity="0.65"/>
<stop offset="0.677083" stop-color="white" stop-opacity="0.19"/>
<stop offset="1" stop-color="white" stop-opacity="0"/>
</linearGradient>
<linearGradient id="paint8_linear_1540_11795" x1="31.083" y1="316.019" x2="37.3663" y2="316.019" gradientUnits="userSpaceOnUse">
<stop offset="0.0875682" stop-color="white" stop-opacity="0.17"/>
<stop offset="0.272185" stop-color="white" stop-opacity="0.65"/>
<stop offset="0.489769" stop-color="white" stop-opacity="0.65"/>
<stop offset="0.677083" stop-color="white" stop-opacity="0.19"/>
<stop offset="1" stop-color="white" stop-opacity="0"/>
</linearGradient>
<linearGradient id="paint9_linear_1540_11795" x1="321.207" y1="317.858" x2="232.584" y2="317.858" gradientUnits="userSpaceOnUse">
<stop stop-color="#25262B"/>
<stop offset="0.015659" stop-color="#606166"/>
<stop offset="0.035819" stop-color="#9FA0A4"/>
<stop offset="0.0504351" stop-color="#C8C8CE"/>
<stop offset="0.479167" stop-color="#D7D8DD"/>
<stop offset="0.941214" stop-color="#CBCBD3"/>
<stop offset="0.970403" stop-color="#A7A8AC"/>
<stop offset="0.980129" stop-color="#595A5E"/>
<stop offset="1" stop-color="#27282C"/>
</linearGradient>
<linearGradient id="paint10_linear_1540_11795" x1="276.784" y1="302.784" x2="276.784" y2="314.917" gradientUnits="userSpaceOnUse">
<stop stop-color="#252525"/>
<stop offset="1" stop-color="#101010"/>
</linearGradient>
</defs>
</svg>
