<svg width="14" height="13" viewBox="0 0 14 13" fill="none" xmlns="http://www.w3.org/2000/svg">
<path d="M8.34548 1.84025C8.22179 1.58878 8.03014 1.37699 7.79224 1.22889C7.55434 1.08078 7.27971 1.00228 6.99948 1.00228C6.71924 1.00228 6.44461 1.08078 6.20671 1.22889C5.96881 1.37699 5.77716 1.58878 5.65348 1.84025L1.59048 9.54125C1.47546 9.77035 1.42107 10.0251 1.43252 10.2812C1.44396 10.5373 1.52084 10.7862 1.65584 11.0041C1.79083 11.2221 1.97942 11.4018 2.20361 11.5261C2.42781 11.6504 2.68012 11.7152 2.93648 11.7142H11.0625C11.3188 11.7152 11.5711 11.6504 11.7953 11.5261C12.0195 11.4018 12.2081 11.2221 12.3431 11.0041C12.4781 10.7862 12.555 10.5373 12.5664 10.2812C12.5779 10.0251 12.5235 9.77035 12.4085 9.54125L8.34548 1.84025ZM4.88648 1.45425C5.08124 1.06018 5.38233 0.728434 5.75571 0.496478C6.1291 0.264522 6.55991 0.141602 6.99948 0.141602C7.43904 0.141602 7.86986 0.264522 8.24324 0.496478C8.61663 0.728434 8.91771 1.06018 9.11248 1.45425L13.1795 9.15625C13.3607 9.51638 13.4465 9.91699 13.4286 10.3198C13.4107 10.7225 13.2898 11.114 13.0774 11.4566C12.8649 11.7993 12.5681 12.0817 12.2154 12.2769C11.8626 12.472 11.4656 12.5734 11.0625 12.5712H2.93648C2.53435 12.5706 2.13903 12.4675 1.78783 12.2716C1.43663 12.0758 1.14114 11.7936 0.92927 11.4519C0.717398 11.1101 0.596131 10.7199 0.576921 10.3183C0.55771 9.91662 0.64119 9.51668 0.819477 9.15625L4.88648 1.45925V1.45425Z" fill="white"/>
</svg>
