<svg width="42" height="42" viewBox="0 0 42 42" fill="none" xmlns="http://www.w3.org/2000/svg">
<path d="M37.5266 0C35.971 0 34.5267 0.806497 33.7118 2.13231L24.9324 15.1667C24.6464 15.5962 24.7624 16.1754 25.192 16.4614C25.5402 16.6935 26.0009 16.6648 26.318 16.392L34.9599 8.89658C35.1035 8.76735 35.3248 8.78051 35.4541 8.9241C35.5127 8.98991 35.5438 9.07487 35.5438 9.16222V32.6296C35.5438 32.8234 35.3871 32.979 35.1932 32.979C35.0891 32.979 34.991 32.9335 34.9252 32.8533L8.80219 1.58427C7.95141 0.580342 6.70216 0.00119658 5.38709 0H4.47409C2.00311 0 0 2.00308 0 4.47402V37.526C0 39.9969 2.00311 42 4.47409 42C6.02967 42 7.47397 41.1935 8.28885 39.8677L17.0683 26.8333C17.3543 26.4038 17.2382 25.8246 16.8086 25.5386C16.4604 25.3065 15.9997 25.3352 15.6826 25.608L7.0408 33.1034C6.8972 33.2327 6.67583 33.2195 6.5466 33.0759C6.48797 33.0101 6.45685 32.9251 6.45805 32.8378V9.36444C6.45805 9.1706 6.61481 9.01504 6.80865 9.01504C6.91156 9.01504 7.01088 9.06051 7.07669 9.14068L33.1961 40.4157C34.0469 41.4197 35.2961 41.9988 36.6112 42H37.5242C39.9952 42.0012 41.9995 39.9993 42.0019 37.5284V4.47402C42.0019 2.00308 39.9988 0 37.5278 0H37.5266Z" fill="#000008"/>
</svg>
