<svg width="124" height="138" viewBox="0 0 124 138" fill="none" xmlns="http://www.w3.org/2000/svg">
<path d="M68.4694 127.967C68.8269 128.806 69.0194 129.72 69.0194 130.683C69.0194 134.588 65.8019 137.75 61.835 137.75C57.8681 137.75 54.6506 134.588 54.6506 130.683C54.6506 129.748 54.8363 128.854 55.1731 128.036L12.4794 103.788C11.805 104.474 11.0002 105.018 10.1123 105.389C9.2245 105.76 8.27151 105.949 7.30938 105.946C3.3425 105.946 0.125 102.784 0.125 98.8789C0.125 95.5788 2.41437 92.8151 5.515 92.0313V43.7207C3.98293 43.3415 2.62106 42.4622 1.64485 41.222C0.668634 39.9818 0.133813 38.4515 0.125 36.8732C0.125 32.9682 3.3425 29.8057 7.30938 29.8057C9.68813 29.8057 11.7987 30.947 13.1119 32.707L54.8569 8.98822C54.7182 8.44222 54.6489 7.88092 54.6506 7.3176C54.6506 3.4126 57.875 0.250096 61.835 0.250096C62.9075 0.244533 63.9675 0.481029 64.9359 0.941968C65.9044 1.40291 66.7563 2.07641 67.4284 2.91231C68.1004 3.74821 68.5751 4.72496 68.8173 5.76981C69.0594 6.81466 69.0627 7.90068 68.8269 8.94697L110.819 32.8032C112.126 30.9882 114.264 29.8057 116.691 29.8057C120.658 29.8057 123.875 32.9682 123.875 36.8732C123.875 40.1732 121.572 42.9507 118.464 43.7276L118.341 91.9901C121.51 92.7257 123.875 95.5307 123.875 98.8789C123.875 102.784 120.658 105.946 116.691 105.946C115.688 105.949 114.695 105.742 113.777 105.34C112.858 104.937 112.034 104.348 111.356 103.609L68.4694 127.967ZM66.5513 125.354L109.774 100.797C109.37 99.3924 109.418 97.8964 109.912 96.5207L68.215 69.7082C67.4158 70.5533 66.4522 71.2259 65.3833 71.6847C64.3145 72.1434 63.1631 72.3786 62 72.3757C60.7037 72.379 59.4237 72.0865 58.2573 71.5206C57.091 70.9548 56.0691 70.1303 55.2694 69.1101L14.1775 96.7957C14.6082 98.176 14.5986 99.6561 14.15 101.031L57.0637 125.403C58.384 124.247 60.0802 123.611 61.835 123.615C63.6431 123.615 65.2931 124.268 66.5513 125.348V125.354ZM67.3694 11.8276C66.3916 12.9815 65.0762 13.7991 63.6087 14.1651L63.4988 55.8001C65.4449 56.1299 67.2127 57.1349 68.4914 58.6387C69.7701 60.1424 70.478 62.0487 70.4906 64.0226C70.4906 65.0607 70.2981 66.0645 69.9406 66.9789L111.672 93.8189C112.6 92.9251 113.769 92.2857 115.075 91.9901L115.199 43.7895C113.422 43.4273 111.852 42.3996 110.809 40.9168C109.766 39.4341 109.329 37.6087 109.589 35.8145L67.3694 11.8276ZM56.335 11.862L14.3906 35.6838C14.6884 37.4994 14.2701 39.3596 13.2237 40.8728C12.1772 42.3861 10.5844 43.4341 8.78062 43.7963V91.9557C10.2381 92.2582 11.5306 92.987 12.5206 94.0182L53.805 66.2088C53.5144 65.1058 53.4519 63.955 53.6212 62.8269C53.7905 61.6988 54.1882 60.6171 54.7899 59.648C55.3916 58.6789 56.1847 57.8427 57.1206 57.1905C58.0565 56.5383 59.1156 56.0839 60.2331 55.8551L60.3431 14.2338C58.7812 13.9092 57.3713 13.0749 56.335 11.862Z" fill="white"/>
</svg>
