<svg width="152" height="152" viewBox="0 0 152 152" fill="none" xmlns="http://www.w3.org/2000/svg">
<path fill-rule="evenodd" clip-rule="evenodd" d="M53.5187 94.2531L75.1475 138.129L86.2575 105.315L53.5256 94.2531H53.5187ZM13.9669 75.2162L46.7194 86.3331L57.8431 53.5394L13.9669 75.2162ZM55.43 89.1312C55.9456 89.4062 56.1588 89.5713 56.3994 89.6537C66.9594 93.2425 77.5056 96.8587 88.0931 100.358C88.9525 100.633 90.1762 100.399 91.0219 99.9869C103.129 94.0813 115.201 88.1069 127.274 82.1462C130.711 80.4481 134.135 78.7294 137.882 76.8594C137.057 76.5431 136.631 76.3644 136.184 76.2131C125.961 72.7412 115.738 69.2488 105.48 65.8731C104.397 65.5538 103.235 65.6269 102.201 66.0794C89.3306 72.3356 76.5088 78.695 63.68 85.0269C61.0056 86.3469 58.345 87.6806 55.43 89.1312ZM100.111 61.1844C92.3419 45.4131 84.6694 29.8756 76.8044 13.9187L52.8794 84.5044L100.111 61.1844ZM0.375 76.0138C7.89625 72.2944 14.9912 68.7606 22.1 65.2544C34.1862 59.2938 46.2725 53.3262 58.3794 47.4069C58.9791 47.144 59.5139 46.753 59.9462 46.2612C60.3786 45.7695 60.6979 45.189 60.8819 44.5606C65.6119 30.4463 70.4106 16.3594 75.1956 2.26563C75.3744 1.74313 75.5875 1.23438 75.9175 0.375C76.3988 1.31 76.7563 1.97 77.0863 2.63687C86.3331 21.4056 95.5662 40.1744 104.889 58.9019C105.342 59.8094 106.539 60.5656 107.563 60.9162C121.561 65.7425 135.586 70.4863 149.604 75.2506C150.133 75.4294 150.656 75.6219 151.625 75.9656C150.333 76.6188 149.377 77.1206 148.414 77.595C130.347 86.5119 112.286 95.4494 94.1912 104.304C93.3751 104.662 92.648 105.196 92.0621 105.867C91.4762 106.539 91.0459 107.332 90.8019 108.189C86.1338 122.172 81.3487 136.115 76.5981 150.071C76.4675 150.456 76.3094 150.827 76 151.625C74.7831 149.184 73.7313 147.101 72.7 145.011C64.285 127.948 55.8631 110.884 47.4963 93.7925C47.2116 93.1282 46.7845 92.5345 46.2451 92.0534C45.7058 91.5723 45.0674 91.2154 44.375 91.0081C30.3362 86.3125 16.325 81.5206 2.30688 76.7563C1.79125 76.5775 1.28938 76.3644 0.375 76.0138Z" fill="white"/>
</svg>
