<svg width="52" height="42" viewBox="0 0 52 42" fill="none" xmlns="http://www.w3.org/2000/svg">
<path fill-rule="evenodd" clip-rule="evenodd" d="M11.3249 0.200195H41.2764C41.991 0.200195 42.6512 0.570524 43.0076 1.17133L51.7339 15.8808C52.1863 16.6436 52.052 17.6064 51.4065 18.225L27.3876 41.2435C26.6095 41.9891 25.3579 41.9891 24.5798 41.2435L0.593556 18.2561C-0.0669089 17.6232 -0.190584 16.6322 0.295088 15.8647L9.62258 1.12413C9.98586 0.550056 10.6305 0.200195 11.3249 0.200195ZM37.4091 6.76746V10.8947H28.8772V13.7562C34.8694 14.062 39.3652 15.318 39.3985 16.8234L39.3984 19.9617C39.365 21.4671 34.8694 22.723 28.8772 23.0288V30.0514H23.2118V23.0288C17.2195 22.723 12.7237 21.4671 12.6904 19.9617L12.6906 16.8234C12.7239 15.318 17.2195 14.062 23.2118 13.7562V10.8947H14.6798V6.76746H37.4091ZM26.0445 20.8728C32.4393 20.8728 37.7843 19.8108 39.0923 18.3925C37.9831 17.1899 33.9708 16.2434 28.8772 15.9834V18.9794C27.9642 19.026 27.0164 19.0506 26.0445 19.0506C25.0725 19.0506 24.1248 19.026 23.2118 18.9794V15.9834C18.1181 16.2434 14.1058 17.1899 12.9966 18.3925C14.3047 19.8108 19.6496 20.8728 26.0445 20.8728Z" fill="#009393"/>
</svg>
