<svg width="60" height="60" viewBox="0 0 60 60" fill="none" xmlns="http://www.w3.org/2000/svg">
<path d="M37.9597 11.9801C38.4459 11.9801 38.8947 11.7806 39.2314 11.4315L41.7746 8.77623C42.0862 8.43964 42.535 8.25265 42.9961 8.25265H43.0959C43.5822 8.25265 44.0309 8.46458 44.355 8.8261L46.4991 11.257C46.9105 11.7183 47.4964 11.9801 48.1073 11.9801H53.8541C48.3817 4.69977 39.6801 0 29.8817 0C20.0833 0 11.3694 4.69977 5.89663 11.9801H37.9597Z" fill="white"/>
<path d="M40.9891 20.0706H46.2746L58.1674 20.0582C58.9901 22.4018 59.5263 24.8951 59.7381 27.4631H37.4486C36.8377 27.4631 36.2519 27.2013 35.8404 26.7401L33.6963 24.3216C33.372 23.9601 32.9233 23.7482 32.4371 23.7482H32.3375C31.8887 23.7482 31.4398 23.9352 31.1281 24.2718L28.5852 26.9271C28.2484 27.2761 27.7997 27.4756 27.3135 27.4756H0C0.211829 24.8951 0.747974 22.4143 1.5707 20.0831H30.5048C31.4025 20.0831 32.2751 19.6842 32.8734 19.011L34.7185 16.9292C35.0425 16.5676 35.4913 16.3557 35.9775 16.3557C36.4637 16.3557 36.9125 16.5676 37.2366 16.9292L39.3809 19.3476C39.7921 19.8089 40.3782 20.0706 40.9891 20.0706Z" fill="white"/>
<path d="M17.8019 42.4849C17.4654 42.834 17.0164 43.0335 16.5304 43.0335L2.86723 43.0459C1.73286 40.7023 0.910133 38.1966 0.411483 35.5662H19.8464C20.7563 35.5662 21.6289 35.1797 22.2274 34.4941L24.0725 32.4122C24.3842 32.0632 24.8453 31.8512 25.3315 31.8512C25.8178 31.8512 26.2665 32.0507 26.5906 32.4122L28.7347 34.8057C29.1462 35.267 29.732 35.5288 30.3429 35.5288H59.352C58.8533 38.1592 58.0303 40.6649 56.896 43.0085H26.6777C26.0671 43.0085 25.481 42.7467 25.0698 42.2855L22.9255 39.867C22.6138 39.518 22.1527 39.306 21.6664 39.306H21.5666C21.1054 39.306 20.6691 39.493 20.345 39.8296L17.8019 42.4849Z" fill="white"/>
<path d="M18.5747 50.4509L51.8099 50.4633C46.3247 56.3225 38.5458 60 29.8817 60C21.2177 60 13.4263 56.3225 7.95356 50.4633H8.07822C8.98835 50.4633 9.86099 50.0769 10.4592 49.3912L12.3043 47.3094C12.616 46.9603 13.0771 46.7484 13.5634 46.7484C14.0496 46.7484 14.4983 46.9479 14.8224 47.3094L16.9667 49.7278C17.378 50.1891 17.964 50.4509 18.5747 50.4509Z" fill="white"/>
</svg>
