<svg width="60" height="60" viewBox="0 0 60 60" fill="none" xmlns="http://www.w3.org/2000/svg">
<path d="M43.4385 5.27847C41.8946 6.82239 40.4801 8.49573 39.2228 10.28L38.8252 10.1506C36.5325 9.40174 34.1565 8.93949 31.762 8.78232C31.0409 8.72685 28.3506 8.72685 27.4723 8.78232C24.819 8.95798 22.7851 9.35551 20.4738 10.1598C20.3814 10.1968 20.2982 10.2245 20.215 10.2523C18.9114 8.47724 17.4599 6.81314 15.8606 5.28772C23.5339 1.3586 32.5109 0.887101 40.5448 3.98417C41.4046 4.30775 42.2459 4.68679 43.0687 5.09357L43.4385 5.27847Z" fill="#F00500"/>
<path d="M57.7498 40.3447C56.5849 43.6637 54.8376 46.7423 52.5726 49.4233C51.343 50.8655 49.984 52.1876 48.5232 53.3894C45.1026 56.1444 41.1087 58.1136 36.8468 59.149C32.1318 60.2862 27.2134 60.2862 22.4985 59.149C18.2272 58.1136 14.2426 56.1444 10.822 53.3894C9.36125 52.1876 8.00223 50.8655 6.77264 49.4233C0.254882 41.7222 -1.72356 31.146 1.59541 21.6144C2.22408 19.8486 3.0099 18.1475 3.9529 16.5296C4.38742 15.79 4.92363 14.958 5.18249 14.6159C6.07002 18.4341 7.16093 21.79 7.56771 23.0011C7.53997 23.0658 7.503 23.1398 7.46601 23.2045C5.31192 27.5681 4.14705 31.7746 3.8697 36.2492C3.8697 36.3047 3.86045 36.3694 3.86045 36.4249C3.78649 37.7654 3.82347 38.4033 4.04535 39.2446C4.73873 41.8794 6.87434 44.7823 10.221 47.6298C15.7034 52.2893 23.1364 55.6544 28.7666 56.0427C34.6372 56.4403 43.2998 53.0104 49.0687 47.9996C49.9747 47.1953 50.8253 46.3447 51.6203 45.4387C52.1935 44.7731 53.0441 43.6267 52.9794 43.6267C52.9609 43.6267 52.9794 43.6082 53.0163 43.5897C53.0441 43.5712 53.0718 43.5435 53.0533 43.525C53.0441 43.5158 53.0626 43.488 53.0903 43.4788C53.118 43.4695 53.1365 43.451 53.1273 43.4326C53.118 43.4141 53.1273 43.3956 53.1643 43.3863C53.192 43.3771 53.2012 43.3493 53.192 43.3309C53.1827 43.3124 53.192 43.2939 53.2105 43.2939C53.229 43.2939 53.2475 43.2661 53.2475 43.2477C53.2475 43.2292 53.2659 43.2014 53.2844 43.2014C53.3029 43.2014 53.3214 43.1829 53.3214 43.1645C53.3492 43.0905 53.3954 43.0165 53.4416 42.9518C53.5803 42.7392 54.135 41.75 54.2089 41.5836C54.7359 40.3909 55.0687 39.3278 55.2259 38.2646C55.2999 37.7561 55.3461 36.8224 55.3091 36.6005C55.2999 36.5635 55.2999 36.4988 55.2906 36.3971C55.2721 36.2122 55.2629 35.9349 55.2444 35.6575C55.2259 35.2415 55.1889 34.6591 55.1612 34.3725C54.7636 30.1752 53.6912 26.7453 51.6573 23.1121C51.5741 22.9734 51.5002 22.8347 51.4539 22.7238C51.4354 22.696 51.4262 22.6683 51.4169 22.6498C51.7035 21.79 52.8777 18.1937 53.8114 14.0797L53.8299 14.0982L53.9686 14.2831C54.2089 14.6067 54.8468 15.5681 55.1334 16.0304C56.437 18.1567 57.454 20.4403 58.1751 22.8255C59.8484 28.5666 59.7097 34.6868 57.7498 40.3447Z" fill="#F00500"/>
<path d="M45.7497 29.297C45.722 29.4449 45.2875 29.8886 44.853 30.2122C43.5771 31.146 41.2936 32.015 38.9731 32.431C37.6511 32.6714 36.329 32.7084 35.9315 32.5142C35.6726 32.3848 35.6357 32.2831 35.7281 31.9503C35.9223 31.2569 36.5509 30.4988 37.5309 29.7869C38.0301 29.4264 40.0548 28.1968 40.9978 27.6791C42.5509 26.8285 43.8083 26.3201 44.6588 26.1999C44.9269 26.1629 45.2505 26.1537 45.3522 26.1999C45.5186 26.2646 45.7035 26.7546 45.7775 27.3463C45.8144 27.6606 45.796 29.0473 45.7497 29.297Z" fill="#000008"/>
<path d="M23.9684 32.3571C23.9129 32.468 23.6356 32.5882 23.3213 32.6344C23.0069 32.6806 22.0454 32.6529 21.5 32.5882C19.54 32.3293 17.4599 31.7284 15.9437 30.9888C15.0932 30.5728 14.483 30.1567 14.03 29.7037L13.7711 29.4356L13.7434 29.0843C13.6972 28.4742 13.7064 27.5127 13.7804 27.1706C13.8266 26.884 13.9283 26.6067 14.067 26.3571C14.1409 26.2646 14.1409 26.2646 14.4738 26.2646C14.8805 26.2646 15.2226 26.3293 15.7773 26.505C16.9144 26.8563 18.6063 27.7068 20.6679 28.9457C22.369 29.9626 23.0069 30.4618 23.4969 31.146C23.8297 31.5712 24.0516 32.1722 23.9684 32.3571Z" fill="#000008"/>
<path d="M37.0591 45.2261C37.0591 45.2538 36.9481 45.6976 36.8094 46.2246C36.6708 46.7515 36.5598 47.1768 36.5598 47.1953C36.4581 47.2045 36.3657 47.2138 36.264 47.2045H35.9681L35.5614 48.166C35.3395 48.693 35.1361 49.183 35.1084 49.2569L35.0529 49.3864L34.6646 48.7577V46.1968L34.5906 46.2153C34.4335 46.2523 33.3148 46.4002 32.8248 46.4465C30.8002 46.6498 28.7663 46.6036 26.7508 46.317C26.4273 46.2708 26.1499 46.2338 26.1407 46.2431C26.1314 46.2523 26.1407 46.844 26.1592 47.5743L26.1869 48.8871L26.0297 49.1275C25.9465 49.2569 25.8633 49.3679 25.8633 49.3771C25.8356 49.4049 25.7431 49.2569 25.5305 48.8317C25.2994 48.3879 25.133 47.9164 25.0128 47.4264L24.9481 47.1583L24.6615 47.1768L24.3749 47.2045L24.3009 46.8625C24.2639 46.6776 24.2177 46.391 24.1992 46.2338L24.1715 45.938L23.9311 45.7253C23.7924 45.6052 23.6538 45.485 23.626 45.4665C23.5798 45.4295 23.5613 45.3648 23.5613 45.3093V45.1984L25.8726 45.2169L25.9465 45.4572L26.3441 45.4757C26.5659 45.485 27.2686 45.5035 27.8972 45.522L29.0529 45.5497L29.3487 45.0874L29.6538 44.6252H30.0421L30.0236 42.7022L29.5151 42.4804C27.8787 41.7592 26.9172 40.9364 26.5567 39.938C26.4827 39.7346 26.4827 39.6606 26.4642 38.7361C26.455 37.8209 26.455 37.7377 26.5197 37.5343C26.6491 37.072 27.0097 36.7115 27.472 36.5913C27.6291 36.5451 28.0451 36.5451 30.227 36.5451L32.7971 36.5543L33.0837 36.693C33.4258 36.8594 33.5829 36.9796 33.7771 37.2384C33.9989 37.5343 34.0637 37.7654 34.0637 38.3293C34.0637 39.1337 34.0082 39.827 33.925 40.1044C33.8048 40.4834 33.6199 40.844 33.3888 41.1676C32.9265 41.7592 32.0852 42.3509 31.3179 42.619L31.096 42.7022L31.1145 44.6437L31.5213 44.6807L31.7986 45.0967L32.0667 45.5127H33.3056C33.9897 45.5127 34.5906 45.5219 34.6461 45.5312C34.7386 45.5497 34.757 45.5404 34.8495 45.3833L34.9604 45.2169H36.0236C36.8187 45.1799 37.0591 45.1984 37.0591 45.2261Z" fill="#000008"/>
<path d="M32.178 47.8794C32.0024 47.9811 31.8822 48.0273 31.8544 48.0088C31.8267 47.9996 31.6973 47.8886 31.5586 47.787L31.309 47.5836L31.0501 47.8609C30.4862 48.4711 30.4677 48.4988 30.3013 48.5081C30.0424 48.5358 29.9869 48.4896 29.6726 48.0181C29.5062 47.7777 29.3768 47.5743 29.3768 47.5743C29.3768 47.5743 29.2566 47.5558 29.1179 47.5466L28.859 47.5188L28.6187 48.0181L28.406 47.9534C28.2396 47.8979 28.0732 47.8332 27.9161 47.7592L27.6387 47.6205V47.0936L32.5571 47.1121L32.5663 47.3617C32.5756 47.6575 32.5848 47.6483 32.178 47.8794Z" fill="#000008"/>
<path d="M55.2905 36.6005C55.2812 36.5635 55.2812 36.4988 55.272 36.3971C53.0532 36.1567 46.7203 36.0088 40.8405 40.8624C40.8405 40.8624 38.9452 32.1721 30.07 32.1721C21.1947 32.1721 17.9035 40.8624 17.9035 40.8624C12.9297 35.5096 6.27341 35.8979 3.8697 36.2492C3.8697 36.3047 3.86045 36.3694 3.86045 36.4249C3.78649 37.7654 3.82347 38.4033 4.04535 39.2446C4.73873 41.8794 6.87434 44.7823 10.221 47.6298C15.7034 52.2893 23.1364 55.6544 28.7666 56.0427C34.6372 56.4403 43.2998 53.0104 49.0687 47.9996C49.9747 47.1953 50.8253 46.3447 51.6203 45.4387C52.1935 44.7731 53.0441 43.6267 52.9794 43.6267C52.9609 43.6267 52.9794 43.6082 53.0163 43.5897C53.0441 43.5712 53.0718 43.5435 53.0533 43.525C53.0441 43.5158 53.0626 43.488 53.0903 43.4788C53.118 43.4695 53.1365 43.451 53.1273 43.4326C53.118 43.4141 53.1273 43.3956 53.1643 43.3863C53.192 43.3771 53.2012 43.3493 53.192 43.3309C53.1827 43.3124 53.192 43.2939 53.2105 43.2939C53.229 43.2939 53.2475 43.2661 53.2475 43.2477C53.2475 43.2292 53.2659 43.2014 53.2844 43.2014C53.3029 43.2014 53.3214 43.1829 53.3214 43.1645C53.3492 43.0905 53.3954 43.0165 53.4416 42.9518C53.5803 42.7392 54.135 41.75 54.2089 41.5836C54.7359 40.3909 55.0687 39.3278 55.2259 38.2646C55.2814 37.7561 55.3274 36.8224 55.2905 36.6005ZM32.178 47.8794C32.0024 47.9811 31.8822 48.0273 31.8544 48.0088C31.8267 47.9996 31.6973 47.8886 31.5586 47.787L31.309 47.5836L31.0501 47.8609C30.4862 48.4711 30.4677 48.4988 30.3013 48.5081C30.0424 48.5358 29.9869 48.4896 29.6726 48.0181C29.5062 47.7777 29.3768 47.5743 29.3768 47.5743C29.3768 47.5743 29.2566 47.5558 29.1179 47.5466L28.859 47.5188L28.6187 48.0181L28.406 47.9534C28.2396 47.8979 28.0732 47.8332 27.9161 47.7592L27.6387 47.6205V47.0936L32.5571 47.1121L32.5663 47.3617C32.5756 47.6575 32.5848 47.6483 32.178 47.8794ZM36.8004 46.2153C36.6617 46.7423 36.5508 47.1675 36.5508 47.186C36.4491 47.1953 36.3566 47.2045 36.2549 47.1953H35.9591L35.5614 48.166C35.3395 48.693 35.1361 49.183 35.1084 49.2569L35.0529 49.3864L34.6646 48.7577V46.1968L34.5906 46.2153C34.4335 46.2523 33.3148 46.4002 32.8248 46.4465C30.8002 46.6498 28.7663 46.6036 26.7508 46.317C26.4273 46.2708 26.1499 46.2338 26.1407 46.2431C26.1314 46.2523 26.1407 46.844 26.1592 47.5743L26.1869 48.8871L26.0297 49.1275C25.9465 49.2569 25.8633 49.3679 25.8633 49.3771C25.8356 49.4049 25.7431 49.2569 25.5305 48.8317C25.2994 48.3879 25.133 47.9164 25.0128 47.4264L24.9481 47.1583L24.6615 47.1768L24.3749 47.2045L24.3009 46.8625C24.2639 46.6776 24.2177 46.391 24.1992 46.2338L24.1715 45.938L23.9311 45.7253C23.7924 45.6052 23.6538 45.485 23.626 45.4665C23.5798 45.4295 23.5613 45.3648 23.5613 45.3093V45.1984L25.8726 45.2169L25.9465 45.4572L26.3441 45.4757C26.5659 45.485 27.2686 45.5035 27.8972 45.522L29.0529 45.5497L29.3487 45.0874L29.6538 44.6252H30.0421L30.0236 42.7022L29.5151 42.4804C27.8787 41.7592 26.9172 40.9364 26.5567 39.938C26.4827 39.7346 26.4827 39.6606 26.4642 38.7361C26.455 37.8209 26.455 37.7377 26.5197 37.5343C26.6491 37.072 27.0097 36.7115 27.472 36.5913C27.6291 36.5451 28.0451 36.5451 30.227 36.5451L32.7971 36.5543L33.0837 36.693C33.4258 36.8594 33.5829 36.9796 33.7771 37.2384C33.9989 37.5343 34.0637 37.7654 34.0637 38.3293C34.0637 39.1337 34.0082 39.827 33.925 40.1044C33.8048 40.4834 33.6199 40.844 33.3888 41.1676C32.9265 41.7592 32.0852 42.3509 31.3179 42.619L31.096 42.7022L31.1145 44.6437L31.5213 44.6807L31.7986 45.0967L32.0667 45.5127H33.3056C33.9897 45.5127 34.5906 45.5219 34.6461 45.5312C34.7386 45.5497 34.757 45.5404 34.8495 45.3833L34.9604 45.2169H36.0236C36.8464 45.2169 37.087 45.2261 37.087 45.2538C37.0592 45.2446 36.939 45.6976 36.8004 46.2153Z" fill="white"/>
<path d="M55.2167 35.6575C55.1982 35.2415 55.1613 34.659 55.1335 34.3724C54.736 30.1752 53.6636 26.7453 51.6297 23.112C51.5465 22.9734 51.4725 22.8347 51.4263 22.7237C51.4078 22.696 51.3985 22.6683 51.3893 22.6498C51.6759 21.79 52.85 18.1937 53.7838 14.0797C55.0503 8.4957 55.8546 1.96874 53.3955 0.00879862C53.3955 0.00879862 49.1427 -0.305532 43.4478 5.27844C41.9039 6.82236 40.4894 8.4957 39.2321 10.28L38.8345 10.1506C36.5418 9.40171 34.1658 8.93946 31.7713 8.7823C31.0502 8.72683 28.3599 8.72683 27.4816 8.7823C24.8283 8.95795 22.7944 9.35548 20.4831 10.1598C20.3907 10.1968 20.3075 10.2245 20.2242 10.2522C18.9207 8.47721 17.4692 6.81311 15.8698 5.28769C9.94376 -0.32402 5.53388 -0.000446941 5.53388 -0.000446941C2.92677 2.02421 3.8143 8.84701 5.16408 14.6159C6.0516 18.4341 7.14251 21.79 7.5493 23.0011C7.52156 23.0658 7.48458 23.1398 7.4476 23.2045C5.29351 27.5681 4.12881 31.7746 3.85146 36.2491C6.26442 35.8978 12.9114 35.5003 17.8945 40.8624C17.8945 40.8624 21.1857 32.1721 30.061 32.1721C38.9362 32.1721 40.8314 40.8624 40.8314 40.8624C46.7113 36.0088 53.0441 36.166 55.263 36.3971C55.2537 36.2122 55.2352 35.9348 55.2167 35.6575ZM9.29661 19.5157C9.29661 19.5157 5.83896 10.8717 6.72648 5.93484C6.8744 5.10279 7.15176 4.37243 7.58628 3.81773C7.58628 3.81773 11.5062 4.20602 17.8298 11.2322C17.8298 11.2322 16.6279 11.8147 15.0193 13.0535C15.0193 13.0535 15.01 13.0627 15.0008 13.0627C13.2535 14.4032 11.0162 16.5296 9.29661 19.5157ZM23.9684 32.3571C23.9129 32.468 23.6356 32.5882 23.3213 32.6344C23.0069 32.6806 22.0454 32.6529 21.5 32.5882C19.54 32.3293 17.4599 31.7284 15.9437 30.9888C15.0932 30.5728 14.483 30.1567 14.03 29.7037L13.7711 29.4356L13.7434 29.0843C13.6972 28.4742 13.7064 27.5127 13.7804 27.1706C13.8266 26.884 13.9283 26.6067 14.067 26.3571C14.1409 26.2646 14.1409 26.2646 14.4738 26.2646C14.8805 26.2646 15.2226 26.3293 15.7773 26.505C16.9144 26.8563 18.6063 27.7068 20.6679 28.9457C22.369 29.9626 23.0069 30.4618 23.4969 31.146C23.8297 31.5712 24.0516 32.1722 23.9684 32.3571ZM45.7497 29.297C45.722 29.4449 45.2875 29.8886 44.853 30.2122C43.5771 31.146 41.2936 32.015 38.9731 32.431C37.6511 32.6714 36.329 32.7084 35.9315 32.5142C35.6726 32.3848 35.6357 32.2831 35.7281 31.9503C35.9223 31.2569 36.5509 30.4988 37.5309 29.7869C38.0301 29.4264 40.0548 28.1968 40.9978 27.6791C42.5509 26.8285 43.8083 26.3201 44.6588 26.1999C44.9269 26.1629 45.2505 26.1537 45.3522 26.1999C45.5186 26.2646 45.7035 26.7546 45.7775 27.3463C45.8144 27.6606 45.796 29.0473 45.7497 29.297ZM44.2151 13.0535L44.1966 13.0442C42.6435 11.8054 41.4786 11.223 41.4786 11.223C47.5896 4.19678 51.3708 3.80849 51.3708 3.80849C51.7868 4.37244 52.0549 5.09354 52.2029 5.92559C53.0626 10.8624 49.7252 19.5157 49.7252 19.5157C48.3292 17.0288 46.4524 14.8285 44.2151 13.0535Z" fill="#FFA409"/>
<path d="M52.2133 5.92554C51.4922 5.83309 48.0808 5.8146 44.2164 13.0534L44.1979 13.0442C42.6447 11.8054 41.4798 11.2229 41.4798 11.2229C47.5908 4.19673 51.372 3.80844 51.372 3.80844C51.7973 4.37239 52.0654 5.09349 52.2133 5.92554Z" fill="#FF9300"/>
<path d="M49.7351 19.5157C48.3298 17.0195 46.4629 14.8285 44.2164 13.0534C48.0808 5.8146 51.483 5.83309 52.2133 5.92554C53.0731 10.8716 49.7351 19.5157 49.7351 19.5157Z" fill="#FF8300"/>
<path d="M52.3512 5.95324C52.3049 5.944 52.2595 5.93479 52.2133 5.92554L52.3512 5.95324Z" fill="#FF8300"/>
<path d="M17.829 11.2228C17.829 11.2228 16.6271 11.8052 15.0185 13.0441C15.0185 13.0441 15.0092 13.0533 15 13.0533C10.9969 5.80524 7.47452 5.83298 6.71642 5.92543C6.86434 5.09338 7.1417 4.36303 7.57622 3.80833C7.58546 3.80833 11.5054 4.19661 17.829 11.2228Z" fill="#FF9300"/>
<path d="M15.0099 13.0534C13.2533 14.4031 11.0162 16.5204 9.29661 19.5157C9.29661 19.5157 5.83881 10.8716 6.72634 5.92549C7.47518 5.83304 11.0068 5.81455 15.0099 13.0534Z" fill="#FF8300"/>
<path d="M6.72634 5.92549C6.68011 5.93473 6.62462 5.94398 6.57839 5.95322L6.72634 5.92549Z" fill="#FF8300"/>
<path d="M40.3782 24.3139C40.3782 24.3139 37.4198 24.4988 37.7896 22.1875C38.1594 19.8763 40.4706 19.5989 41.1178 19.6914C41.7649 19.7838 44.3536 20.7083 43.8913 22.6498C43.4291 24.5912 42.7819 24.2214 42.4121 24.3139C42.0423 24.4063 40.3782 24.3139 40.3782 24.3139Z" fill="white"/>
<path d="M18.5599 24.3139C18.5599 24.3139 15.6015 24.4988 15.9713 22.1875C16.3411 19.8763 18.6523 19.5989 19.2995 19.6914C19.9467 19.7838 22.5353 20.7083 22.073 22.6498C21.6108 24.5912 20.9636 24.2214 20.5938 24.3139C20.224 24.4063 18.5599 24.3139 18.5599 24.3139Z" fill="white"/>
</svg>
