<svg width="138" height="114" viewBox="0 0 138 114" fill="none" xmlns="http://www.w3.org/2000/svg">
<path d="M117.606 0H137.475L96.1219 40.9544C88.8919 48.0777 79.1496 52.0707 69 52.0707C58.8504 52.0707 49.1081 48.0777 41.8781 40.9544L0.490624 0H20.3938L51.8125 31.0956C56.3878 35.6115 62.5577 38.1436 68.9863 38.1436C75.4148 38.1436 81.5847 35.6115 86.16 31.0956L117.606 0ZM20.1531 113.871H0.25L41.8781 72.6687C49.1081 65.5454 58.8504 61.5524 69 61.5524C79.1496 61.5524 88.8919 65.5454 96.1219 72.6687L137.75 113.864H117.847L86.1875 82.5C81.6122 77.9841 75.4423 75.452 69.0138 75.452C62.5852 75.452 56.4153 77.9841 51.84 82.5L20.1462 113.871H20.1531Z" fill="white"/>
</svg>
