<svg width="118" height="124" viewBox="0 0 118 124" fill="none" xmlns="http://www.w3.org/2000/svg">
<path d="M113.43 97.1314C114.643 96.714 115.684 95.9086 116.392 94.8397C117.1 93.7708 117.437 92.4982 117.349 91.2189V98.7814C117.358 100.068 116.97 101.326 116.238 102.384C115.506 103.442 114.465 104.249 113.258 104.694L61.0907 123.483C59.775 124.007 58.3088 124.007 56.9932 123.483L4.82567 104.701C3.61294 104.264 2.56686 103.46 1.8335 102.4C1.10013 101.34 0.716109 100.077 0.735044 98.7883V91.2258C0.735044 93.8314 2.35067 96.2651 4.82567 97.1383L57.165 115.921C58.4787 116.442 59.942 116.442 61.2557 115.921L113.43 97.1314ZM113.43 83.7389C114.63 83.3032 115.659 82.4934 116.365 81.429C117.07 80.3646 117.415 79.1017 117.349 77.8264V85.3889C117.358 86.6754 116.97 87.9334 116.238 88.9914C115.506 90.0494 114.465 90.8561 113.258 91.3014L61.0907 110.091C59.775 110.614 58.3088 110.614 56.9932 110.091L4.82567 91.3083C3.61294 90.8716 2.56686 90.0671 1.8335 89.0071C1.10013 87.9471 0.716109 86.6846 0.735044 85.3958V77.7439C0.735044 80.4389 2.35067 82.7833 4.82567 83.7389L57.165 102.528C58.4787 103.05 59.942 103.05 61.2557 102.528L113.43 83.7389ZM113.43 70.2639C114.625 69.8357 115.656 69.0422 116.375 67.9958C117.094 66.9495 117.466 65.7033 117.438 64.4339V71.9964C117.447 73.2838 117.057 74.5423 116.324 75.6004C115.591 76.6586 114.549 77.4647 113.341 77.9089L61.1732 96.6983C59.8595 97.22 58.3962 97.22 57.0825 96.6983L4.82567 77.8264C3.61294 77.3897 2.56686 76.5852 1.8335 75.5252C1.10013 74.4653 0.716109 73.2027 0.735044 71.9139V64.3514C0.735044 66.957 2.35067 69.3908 4.82567 70.2639L57.165 89.0464C58.4787 89.5681 59.942 89.5681 61.2557 89.0464L113.43 70.2639ZM0.563168 25.3014C0.544233 24.0126 0.928261 22.75 1.66162 21.6901C2.39498 20.6301 3.44107 19.8256 4.6538 19.3889L56.9107 0.517017C58.2243 -0.00469564 59.6877 -0.00469564 61.0013 0.517017L113.258 19.3889C114.471 19.8256 115.517 20.6301 116.25 21.6901C116.984 22.75 117.368 24.0126 117.349 25.3014V58.5214C117.358 59.8079 116.97 61.0659 116.238 62.1239C115.506 63.182 114.465 63.9886 113.258 64.4339L60.9188 83.2164C59.6052 83.7381 58.1418 83.7381 56.8282 83.2164L4.6538 64.4339C3.44107 63.9972 2.39498 63.1927 1.66162 62.1327C0.928261 61.0728 0.544233 59.8102 0.563168 58.5214V25.3014Z" fill="white"/>
</svg>
