<svg width="154" height="140" viewBox="0 0 154 140" fill="none" xmlns="http://www.w3.org/2000/svg">
<g filter="url(#filter0_d_1800_970)">
<path d="M74.7313 1.40964C78.0244 -0.288489 82.0463 3.63714 80.3001 6.87526C79.2757 9.51526 75.4188 10.2165 73.4526 8.20213C71.3694 6.27713 72.0501 2.45464 74.7313 1.40276V1.40964ZM39.2907 5.16339C41.2913 4.35214 43.8282 6.15339 43.6219 8.30526C43.8282 10.629 40.9407 12.3478 38.8988 11.2409C36.1969 10.2096 36.5063 5.89214 39.2907 5.16339V5.16339ZM111.877 11.3028C108.749 10.9315 108.254 6.09151 111.258 5.11526C113.596 4.00151 115.741 6.09839 116.084 8.27776C115.589 10.134 114.008 11.839 111.877 11.3028V11.3028ZM47.3551 19.9996C50.7032 17.9165 55.4744 21.0171 54.9588 24.8465C54.7869 28.7034 49.5757 30.9446 46.6332 28.3321C43.7869 26.2834 44.2201 21.5809 47.3551 19.9996ZM98.4363 22.2134C99.9282 18.4321 105.978 18.3084 107.676 21.9934C109.361 24.8603 107.291 28.4146 104.301 29.3909C100.334 30.1196 96.5732 25.8984 98.4363 22.2134ZM70.4619 29.1778C70.4276 25.919 73.4388 23.499 76.5807 23.2721C78.6707 23.6846 80.9394 24.5578 81.8332 26.6271C83.5038 29.4871 82.0188 33.4128 79.0144 34.7259C77.6394 35.4821 76.0032 35.2003 74.5044 35.1109C72.2151 34.0109 70.2832 31.8315 70.4619 29.1778ZM17.7582 33.9215C20.8176 32.0653 24.9426 35.434 23.7807 38.7065C23.1482 41.5321 19.2844 42.6803 17.0776 40.879C14.7194 39.1878 15.0907 35.1246 17.7651 33.9146L17.7582 33.9215ZM130.934 33.9078C133.526 31.9278 137.809 34.2034 137.493 37.4209C137.672 40.3565 133.966 42.5771 131.395 41.0646C128.563 39.8065 128.267 35.5165 130.934 33.9146V33.9078ZM85.2844 39.7584C89.5607 38.2459 94.6482 40.054 97.0819 43.8146C100.299 48.4003 98.5944 55.3853 93.5963 58.0184C88.4263 61.1328 80.8707 58.4996 78.9526 52.8071C76.7869 47.7196 79.9494 41.3534 85.2776 39.7584H85.2844ZM60.1701 40.2603C64.9138 38.0603 71.3007 39.9028 73.5901 44.674C76.2851 49.3215 74.2019 55.7909 69.3826 58.1903C64.5563 60.8921 57.7432 58.8434 55.4126 53.859C52.7932 49.0328 55.1169 42.4809 60.1701 40.2603V40.2603ZM35.0282 48.7096C35.3926 45.7053 38.2732 43.7459 41.1813 43.5396C42.698 43.6998 44.1154 44.3698 45.2019 45.44C46.2883 46.5103 46.9796 47.9175 47.1626 49.4315C46.9563 52.5253 44.5294 55.5365 41.2019 55.5228C37.5376 55.8321 34.3269 52.2434 35.0282 48.7096V48.7096ZM109.292 44.1996C113.053 42.0478 118.271 45.1759 118.106 49.4246C118.36 53.9278 112.585 57.0971 108.845 54.4571C104.954 52.2571 105.256 46.0696 109.292 44.1996ZM49.9607 60.0603C54.3469 58.8709 59.3794 60.9059 61.5313 64.8796C63.8894 68.8809 62.9269 74.4359 59.2626 77.3784C54.5532 81.6821 45.8838 79.9496 43.3813 74.0784C40.5007 68.6953 44.0001 61.4765 49.9538 60.0534L49.9607 60.0603ZM97.5838 60.0396C101.853 58.8365 106.872 60.4521 109.168 64.2815C112.207 68.6609 110.756 75.199 106.239 78.0178C101.496 81.2971 94.1669 79.5784 91.5544 74.4496C88.3919 69.149 91.5751 61.6553 97.5838 60.0396V60.0396ZM21.6838 65.0309C25.4788 63.6215 29.6863 67.7396 28.1463 71.4453C27.2113 74.814 22.3782 76.0653 19.8826 73.5765C16.9607 71.239 18.0401 66.0484 21.6838 65.0309V65.0309ZM124.596 70.4071C124.524 68.8937 125.054 67.4134 126.068 66.2881C127.083 65.1629 128.501 64.4837 130.013 64.3984C132.612 64.8109 135.142 66.8734 134.936 69.6578C135.176 73.3359 130.673 75.8315 127.483 74.1059C125.991 73.3565 125.228 71.8509 124.596 70.4071ZM3.0182 66.8596C5.3007 65.8765 8.12632 67.8221 7.60382 70.3178C7.48007 73.1434 3.23819 74.2365 1.68444 71.8715C0.309445 70.2284 1.13445 67.7053 3.0182 66.8528V66.8596ZM147.043 66.7978C148.651 65.6771 151.236 66.4815 151.869 68.3309C152.948 70.3521 150.968 73.1159 148.658 72.779C145.413 73.0678 144.368 68.2071 147.043 66.7978ZM62.3632 80.3621C68.3719 78.829 74.8344 83.7584 74.8757 89.8496C75.2607 96.0028 68.8944 101.455 62.7482 100.038C57.9907 99.2821 54.2576 94.7721 54.4157 90.049C54.4019 85.5253 57.8669 81.3178 62.3632 80.3621V80.3621ZM86.1644 80.3553C92.2626 78.6778 98.9176 83.6965 98.8213 89.9253C99.1444 95.9615 92.9776 101.235 86.9551 100.032C81.2832 99.3165 77.1032 93.1909 78.6844 87.7734C79.4819 84.1709 82.5482 81.2421 86.1644 80.3484V80.3553ZM40.2669 84.1021C44.4882 83.394 48.4482 88.0209 46.7363 91.9671C45.4851 96.1746 39.2701 97.309 36.5201 93.8784C33.3026 90.5784 35.7088 84.5559 40.2669 84.1021V84.1021ZM110.076 84.2878C113.843 82.734 118.463 85.9378 118.174 89.9596C118.326 94.3803 112.619 97.4328 108.941 94.8478C104.768 92.5309 105.531 85.704 110.076 84.2878V84.2878ZM129.587 103.538C128.116 100.836 130.79 97.254 133.849 97.7559C135.362 97.7284 136.428 98.904 137.397 99.894C137.596 101.496 137.933 103.407 136.579 104.638C134.743 106.927 130.584 106.274 129.587 103.538V103.538ZM17.7444 98.5053C20.5976 96.6421 24.7019 99.4265 24.0557 102.699C23.7119 105.607 19.9994 107.264 17.5588 105.614C14.9326 104.122 15.0288 99.8665 17.7444 98.5053V98.5053ZM74.0713 104.576C77.8044 102.96 82.5619 106.157 82.2044 110.2C82.4794 114.668 76.6013 117.762 72.9507 115.081C68.8944 112.778 69.5751 105.999 74.0713 104.576V104.576ZM47.9876 110.564C51.1638 108.921 55.4263 111.76 55.1376 115.267C55.2338 118.14 52.3876 120.588 49.5001 120.162C47.1144 120.113 45.5607 118.003 44.7907 116.002C44.8319 113.823 45.7463 111.396 47.9876 110.571V110.564ZM100.829 110.619C104.101 108.625 108.749 111.485 108.439 115.225C108.522 119.144 103.269 121.647 100.224 119.075C97.2813 117.061 97.6388 112.221 100.829 110.619ZM110.021 132.963C108.563 130.804 110.275 128.198 112.633 127.703C114.538 128.082 116.552 129.491 116.146 131.65C115.871 134.585 111.513 135.479 110.021 132.97V132.963ZM37.0701 131.086C37.6476 129.367 39.0501 127.669 41.1057 128.116C44.0963 128.322 44.9832 132.763 42.3638 134.132C40.0126 135.692 37.2763 133.554 37.0701 131.086ZM72.2701 133.059C72.8407 130.515 76.1751 129.285 78.3751 130.632C79.8326 131.251 80.2588 132.846 80.6301 134.207C80.4339 134.914 80.2505 135.625 80.0801 136.338C79.1794 137.383 78.0176 138.435 76.5188 138.401C73.7344 138.724 71.2182 135.623 72.2632 133.059H72.2701Z" fill="black"/>
</g>
<path d="M74.7313 1.40964C78.0244 -0.288489 82.0463 3.63714 80.3001 6.87526C79.2757 9.51526 75.4188 10.2165 73.4526 8.20213C71.3694 6.27713 72.0501 2.45464 74.7313 1.40276V1.40964ZM39.2907 5.16339C41.2913 4.35214 43.8282 6.15339 43.6219 8.30526C43.8282 10.629 40.9407 12.3478 38.8988 11.2409C36.1969 10.2096 36.5063 5.89214 39.2907 5.16339V5.16339ZM111.877 11.3028C108.749 10.9315 108.254 6.09151 111.258 5.11526C113.596 4.00151 115.741 6.09839 116.084 8.27776C115.589 10.134 114.008 11.839 111.877 11.3028V11.3028ZM47.3551 19.9996C50.7032 17.9165 55.4744 21.0171 54.9588 24.8465C54.7869 28.7034 49.5757 30.9446 46.6332 28.3321C43.7869 26.2834 44.2201 21.5809 47.3551 19.9996ZM98.4363 22.2134C99.9282 18.4321 105.978 18.3084 107.676 21.9934C109.361 24.8603 107.291 28.4146 104.301 29.3909C100.334 30.1196 96.5732 25.8984 98.4363 22.2134ZM70.4619 29.1778C70.4276 25.919 73.4388 23.499 76.5807 23.2721C78.6707 23.6846 80.9394 24.5578 81.8332 26.6271C83.5038 29.4871 82.0188 33.4128 79.0144 34.7259C77.6394 35.4821 76.0032 35.2003 74.5044 35.1109C72.2151 34.0109 70.2832 31.8315 70.4619 29.1778ZM17.7582 33.9215C20.8176 32.0653 24.9426 35.434 23.7807 38.7065C23.1482 41.5321 19.2844 42.6803 17.0776 40.879C14.7194 39.1878 15.0907 35.1246 17.7651 33.9146L17.7582 33.9215ZM130.934 33.9078C133.526 31.9278 137.809 34.2034 137.493 37.4209C137.672 40.3565 133.966 42.5771 131.395 41.0646C128.563 39.8065 128.267 35.5165 130.934 33.9146V33.9078ZM85.2844 39.7584C89.5607 38.2459 94.6482 40.054 97.0819 43.8146C100.299 48.4003 98.5944 55.3853 93.5963 58.0184C88.4263 61.1328 80.8707 58.4996 78.9526 52.8071C76.7869 47.7196 79.9494 41.3534 85.2776 39.7584H85.2844ZM60.1701 40.2603C64.9138 38.0603 71.3007 39.9028 73.5901 44.674C76.2851 49.3215 74.2019 55.7909 69.3826 58.1903C64.5563 60.8921 57.7432 58.8434 55.4126 53.859C52.7932 49.0328 55.1169 42.4809 60.1701 40.2603V40.2603ZM35.0282 48.7096C35.3926 45.7053 38.2732 43.7459 41.1813 43.5396C42.698 43.6998 44.1154 44.3698 45.2019 45.44C46.2883 46.5103 46.9796 47.9175 47.1626 49.4315C46.9563 52.5253 44.5294 55.5365 41.2019 55.5228C37.5376 55.8321 34.3269 52.2434 35.0282 48.7096V48.7096ZM109.292 44.1996C113.053 42.0478 118.271 45.1759 118.106 49.4246C118.36 53.9278 112.585 57.0971 108.845 54.4571C104.954 52.2571 105.256 46.0696 109.292 44.1996ZM49.9607 60.0603C54.3469 58.8709 59.3794 60.9059 61.5313 64.8796C63.8894 68.8809 62.9269 74.4359 59.2626 77.3784C54.5532 81.6821 45.8838 79.9496 43.3813 74.0784C40.5007 68.6953 44.0001 61.4765 49.9538 60.0534L49.9607 60.0603ZM97.5838 60.0396C101.853 58.8365 106.872 60.4521 109.168 64.2815C112.207 68.6609 110.756 75.199 106.239 78.0178C101.496 81.2971 94.1669 79.5784 91.5544 74.4496C88.3919 69.149 91.5751 61.6553 97.5838 60.0396V60.0396ZM21.6838 65.0309C25.4788 63.6215 29.6863 67.7396 28.1463 71.4453C27.2113 74.814 22.3782 76.0653 19.8826 73.5765C16.9607 71.239 18.0401 66.0484 21.6838 65.0309V65.0309ZM124.596 70.4071C124.524 68.8937 125.054 67.4134 126.068 66.2881C127.083 65.1629 128.501 64.4837 130.013 64.3984C132.612 64.8109 135.142 66.8734 134.936 69.6578C135.176 73.3359 130.673 75.8315 127.483 74.1059C125.991 73.3565 125.228 71.8509 124.596 70.4071ZM3.0182 66.8596C5.3007 65.8765 8.12632 67.8221 7.60382 70.3178C7.48007 73.1434 3.23819 74.2365 1.68444 71.8715C0.309445 70.2284 1.13445 67.7053 3.0182 66.8528V66.8596ZM147.043 66.7978C148.651 65.6771 151.236 66.4815 151.869 68.3309C152.948 70.3521 150.968 73.1159 148.658 72.779C145.413 73.0678 144.368 68.2071 147.043 66.7978ZM62.3632 80.3621C68.3719 78.829 74.8344 83.7584 74.8757 89.8496C75.2607 96.0028 68.8944 101.455 62.7482 100.038C57.9907 99.2821 54.2576 94.7721 54.4157 90.049C54.4019 85.5253 57.8669 81.3178 62.3632 80.3621V80.3621ZM86.1644 80.3553C92.2626 78.6778 98.9176 83.6965 98.8213 89.9253C99.1444 95.9615 92.9776 101.235 86.9551 100.032C81.2832 99.3165 77.1032 93.1909 78.6844 87.7734C79.4819 84.1709 82.5482 81.2421 86.1644 80.3484V80.3553ZM40.2669 84.1021C44.4882 83.394 48.4482 88.0209 46.7363 91.9671C45.4851 96.1746 39.2701 97.309 36.5201 93.8784C33.3026 90.5784 35.7088 84.5559 40.2669 84.1021V84.1021ZM110.076 84.2878C113.843 82.734 118.463 85.9378 118.174 89.9596C118.326 94.3803 112.619 97.4328 108.941 94.8478C104.768 92.5309 105.531 85.704 110.076 84.2878V84.2878ZM129.587 103.538C128.116 100.836 130.79 97.254 133.849 97.7559C135.362 97.7284 136.428 98.904 137.397 99.894C137.596 101.496 137.933 103.407 136.579 104.638C134.743 106.927 130.584 106.274 129.587 103.538V103.538ZM17.7444 98.5053C20.5976 96.6421 24.7019 99.4265 24.0557 102.699C23.7119 105.607 19.9994 107.264 17.5588 105.614C14.9326 104.122 15.0288 99.8665 17.7444 98.5053V98.5053ZM74.0713 104.576C77.8044 102.96 82.5619 106.157 82.2044 110.2C82.4794 114.668 76.6013 117.762 72.9507 115.081C68.8944 112.778 69.5751 105.999 74.0713 104.576V104.576ZM47.9876 110.564C51.1638 108.921 55.4263 111.76 55.1376 115.267C55.2338 118.14 52.3876 120.588 49.5001 120.162C47.1144 120.113 45.5607 118.003 44.7907 116.002C44.8319 113.823 45.7463 111.396 47.9876 110.571V110.564ZM100.829 110.619C104.101 108.625 108.749 111.485 108.439 115.225C108.522 119.144 103.269 121.647 100.224 119.075C97.2813 117.061 97.6388 112.221 100.829 110.619ZM110.021 132.963C108.563 130.804 110.275 128.198 112.633 127.703C114.538 128.082 116.552 129.491 116.146 131.65C115.871 134.585 111.513 135.479 110.021 132.97V132.963ZM37.0701 131.086C37.6476 129.367 39.0501 127.669 41.1057 128.116C44.0963 128.322 44.9832 132.763 42.3638 134.132C40.0126 135.692 37.2763 133.554 37.0701 131.086ZM72.2701 133.059C72.8407 130.515 76.1751 129.285 78.3751 130.632C79.8326 131.251 80.2588 132.846 80.6301 134.207C80.4339 134.914 80.2505 135.625 80.0801 136.338C79.1794 137.383 78.0176 138.435 76.5188 138.401C73.7344 138.724 71.2182 135.623 72.2632 133.059H72.2701Z" fill="white"/>
<defs>
<filter id="filter0_d_1800_970" x="0" y="0.5" width="153.172" height="139.424" filterUnits="userSpaceOnUse" color-interpolation-filters="sRGB">
<feFlood flood-opacity="0" result="BackgroundImageFix"/>
<feColorMatrix in="SourceAlpha" type="matrix" values="0 0 0 0 0 0 0 0 0 0 0 0 0 0 0 0 0 0 127 0" result="hardAlpha"/>
<feOffset dy="0.5"/>
<feGaussianBlur stdDeviation="0.5"/>
<feColorMatrix type="matrix" values="0 0 0 0 0 0 0 0 0 0 0 0 0 0 0 0 0 0 0.204257 0"/>
<feBlend mode="normal" in2="BackgroundImageFix" result="effect1_dropShadow_1800_970"/>
<feBlend mode="normal" in="SourceGraphic" in2="effect1_dropShadow_1800_970" result="shape"/>
</filter>
</defs>
</svg>
