<svg width="47" height="60" viewBox="0 0 47 60" fill="none" xmlns="http://www.w3.org/2000/svg">
<path fill-rule="evenodd" clip-rule="evenodd" d="M37.561 25.0237L37.5599 25.0264C40.0077 28.0956 41.4706 31.9831 41.4706 36.2113C41.4706 40.5023 39.9639 44.4425 37.45 47.5326L37.2336 47.7986L37.1762 47.4605C37.1274 47.173 37.07 46.8827 37.0034 46.59C35.7453 41.0623 31.6463 36.3224 24.8998 32.4845C20.344 29.8999 17.7363 26.7878 17.0516 23.2518C16.6095 20.9653 16.9382 18.6687 17.5735 16.7015C18.2086 14.735 19.1534 13.0874 19.956 12.0955L19.9566 12.0949L22.5809 8.88582C23.0412 8.32308 23.9025 8.32308 24.3628 8.88582L37.561 25.0237ZM41.7119 21.8176L41.7124 21.8164L24.122 0.308004C23.7862 -0.102668 23.1574 -0.102668 22.8215 0.308004L5.23088 21.8167L5.23136 21.8179L5.17413 21.8888C1.93712 25.9056 0 31.0102 0 36.5669C0 49.5085 10.5084 60 23.4718 60C36.4351 60 46.9435 49.5085 46.9435 36.5669C46.9435 31.0103 45.0063 25.9057 41.7694 21.8888L41.7119 21.8176ZM9.43977 24.9544L9.44049 24.9536L11.0138 23.0297L11.0614 23.3849C11.0991 23.6662 11.1448 23.949 11.1989 24.233C12.217 29.5744 15.8537 34.0281 21.9338 37.4774C27.219 40.4854 30.2961 43.9443 31.1828 47.7378C31.5527 49.321 31.6186 50.8786 31.4584 52.2405L31.4485 52.3247L31.3723 52.362C28.9869 53.5273 26.3053 54.1814 23.4712 54.1814C13.5307 54.1814 5.47186 46.1361 5.47186 36.2113C5.47186 31.9501 6.95743 28.0347 9.43977 24.9544Z" fill="white"/>
</svg>
