<svg width="110" height="118" viewBox="0 0 110 118" fill="none" xmlns="http://www.w3.org/2000/svg">
<path d="M53.6733 17.5859L11.7771 107.009H81.3315C83.3458 107.009 85.1677 108.247 85.9583 110.137L86.034 110.309C86.2926 110.925 86.4077 111.592 86.3708 112.259C86.3339 112.926 86.1458 113.575 85.8208 114.159C85.2527 115.185 84.4213 116.042 83.4123 116.64C82.4033 117.238 81.2532 117.556 80.0802 117.562H6.16021C5.01626 117.56 3.89959 117.213 2.95646 116.565L2.57145 116.304C1.40759 115.492 0.568893 114.293 0.203962 112.922C-0.16097 111.55 -0.0285708 110.094 0.577702 108.81L50.009 4.66095C50.5246 3.5747 51.2602 2.6122 52.1608 1.8422C53.0107 1.10927 54.0923 0.70038 55.2145 0.687799C56.3367 0.675219 57.4272 1.05976 58.2933 1.77345C58.6867 2.09383 59.0037 2.49777 59.2215 2.95595L109.361 107.813C110.048 109.237 110.186 110.866 109.76 112.392C109.538 113.223 109.049 113.958 108.368 114.484C107.687 115.009 106.852 115.296 105.992 115.3H105.415C104.261 115.293 103.133 114.955 102.165 114.327C101.198 113.698 100.431 112.805 99.9558 111.753L56.7121 17.5997C56.5818 17.3062 56.3701 17.0563 56.102 16.8795C55.8339 16.7028 55.5207 16.6068 55.1996 16.6028C54.8777 16.603 54.5626 16.6957 54.292 16.8701C54.0213 17.0444 53.8066 17.2929 53.6733 17.5859V17.5859Z" fill="white"/>
</svg>
