<svg width="46" height="46" viewBox="0 0 46 46" fill="none" xmlns="http://www.w3.org/2000/svg">
<path d="M14.3109 0H1.02229C0.457752 0 0 0.457548 0 1.0223V14.3111C0 14.8757 0.457752 15.3334 1.02229 15.3334H14.3109C14.8756 15.3334 15.3332 14.8757 15.3332 14.3111V1.0223C15.3332 0.457548 14.8756 0 14.3109 0Z" fill="white"/>
<path d="M29.6518 15.334H16.3632C15.7986 15.334 15.3409 15.7916 15.3409 16.3561V29.6451C15.3409 30.2097 15.7986 30.6675 16.3632 30.6675H29.6518C30.2163 30.6675 30.6741 30.2097 30.6741 29.6451V16.3561C30.6741 15.7916 30.2163 15.334 29.6518 15.334Z" fill="white"/>
<path d="M31.6891 0H44.9779C45.5425 0 46 0.457548 46 1.0223V14.3111C46 14.8757 45.5425 15.3334 44.9779 15.3334H31.6891C31.1246 15.3334 30.6668 14.8757 30.6668 14.3111V1.0223C30.6668 0.457548 31.1246 0 31.6891 0Z" fill="white"/>
<path d="M14.3109 30.6666H1.02229C0.457752 30.6666 0 31.1241 0 31.6887V44.9777C0 45.5422 0.457752 46 1.02229 46H14.3109C14.8756 46 15.3332 45.5422 15.3332 44.9777V31.6887C15.3332 31.1241 14.8756 30.6666 14.3109 30.6666Z" fill="white"/>
<path d="M31.6891 30.6666H44.9779C45.5425 30.6666 46 31.1241 46 31.6887V44.9777C46 45.5422 45.5425 46 44.9779 46H31.6891C31.1246 46 30.6668 45.5422 30.6668 44.9777V31.6887C30.6668 31.1241 31.1246 30.6666 31.6891 30.6666Z" fill="white"/>
</svg>
