<svg width="132" height="152" viewBox="0 0 132 152" fill="none" xmlns="http://www.w3.org/2000/svg">
<path fill-rule="evenodd" clip-rule="evenodd" d="M128.9 36.7781C129.684 37.1906 131.478 38.1669 131.306 40.2912L131.196 111.908C131.247 112.584 131.087 113.258 130.739 113.84C130.39 114.421 129.87 114.879 129.251 115.153L113.438 124.386L100.926 131.688L67.6232 151.13C67.2009 151.453 66.6836 151.627 66.1519 151.625C65.482 151.603 64.8318 151.393 64.2751 151.02L41.2988 137.765C28.5388 130.402 15.3388 122.784 2.33132 115.304C1.2382 114.775 0.598822 113.544 0.695072 112.142L0.743197 93.2219C0.784447 76.1994 0.811948 58.9087 0.825698 42.1887V42.12C0.83523 42.0057 0.837525 41.8909 0.832572 41.7763V41.5631C0.805072 40.635 0.763822 38.7306 2.55132 37.8713C9.83882 33.5194 17.2913 29.0987 24.5032 24.8225L36.4451 17.7413C45.5338 12.3581 54.7876 6.865 63.7388 1.55063L63.8076 1.50937C64.3931 1.17435 65.0047 0.886965 65.6363 0.65L66.3444 0.375L67.0044 0.766876C73.5082 4.53438 80.1219 8.38437 86.5088 12.1106L98.4438 19.0544L110.097 25.8331L128.433 36.5031H128.446L128.46 36.5169L128.9 36.7781ZM68.6132 144.509L88.9769 132.616C101.325 125.418 113.67 118.215 126.013 111.007L126.081 70.7956L126.116 44.2238L99.6469 59.7062V71.9163C99.6168 79.5361 99.6306 87.156 99.6882 94.7756V95.2981L99.3788 95.7244C99.0411 96.1777 98.6096 96.5529 98.1138 96.8244L97.9351 96.9344H97.9282L89.3757 101.919C86.282 103.706 83.0851 105.562 79.957 107.398L68.6544 113.964L68.6132 144.509ZM39.7657 58.1937C45.5462 61.5163 51.3303 64.8323 57.1182 68.1419L66.0832 73.2913L92.0501 58.1112L66.042 42.7663L39.7657 58.1937ZM37.0844 62.6625L37.5726 92.8369L63.4776 107.927L63.5188 77.8219L37.0844 62.6625ZM6.00945 44.8287L5.87882 111.344L63.4501 144.551L63.4707 113.95L52.1957 107.384L45.1282 103.266C41.5051 101.162 37.7582 98.9831 34.0801 96.8313C33.0145 96.3294 32.3476 95.1056 32.4232 93.765L31.8663 59.6719L6.00945 44.8287ZM123.531 39.7L113.431 33.815L102.28 27.3181C91.6651 21.1581 79.077 13.8431 66.0901 6.23938C52.9373 14.011 39.7923 21.7958 26.6551 29.5938L8.60132 40.2981L34.5751 55.1825L64.3713 37.6856C64.8862 37.354 65.4883 37.1835 66.1006 37.1957C66.7129 37.208 67.3076 37.4025 67.8088 37.7544L97.2063 55.0863L123.531 39.7ZM68.6544 107.948C77.3387 102.887 86.0287 97.8366 94.7244 92.7956V62.5938L68.6751 77.815L68.6544 107.948ZM103.903 102.496C103.644 102.575 103.375 102.614 103.105 102.613C102.74 102.618 102.378 102.55 102.04 102.412C101.702 102.274 101.395 102.068 101.139 101.809C100.724 101.435 100.414 100.959 100.239 100.429C100.064 99.8981 100.031 99.3311 100.142 98.7837C100.258 98.0687 100.622 97.4172 101.17 96.9433C101.718 96.4695 102.415 96.2035 103.139 96.1919C103.985 96.1919 104.81 96.5769 105.408 97.2438L105.415 97.2575C105.828 97.7222 106.099 98.2963 106.194 98.9109C106.289 99.5256 106.205 100.155 105.951 100.723C105.777 101.161 105.501 101.551 105.144 101.86C104.787 102.169 104.361 102.387 103.903 102.496ZM118.093 112.176C117.691 111.863 117.373 111.456 117.167 110.991C116.961 110.525 116.873 110.016 116.91 109.509C116.965 108.416 117.529 107.446 118.436 106.896C118.886 106.603 119.411 106.445 119.949 106.442C120.54 106.442 121.118 106.628 121.626 106.972C122.136 107.306 122.538 107.78 122.784 108.338C123.031 108.895 123.111 109.512 123.015 110.114C122.925 110.87 122.561 111.568 121.993 112.076C121.424 112.583 120.69 112.866 119.928 112.871C119.253 112.868 118.601 112.622 118.093 112.176ZM27.4182 96.2262C28.2776 96.2262 29.0957 96.6181 29.6663 97.2987C30.0754 97.7548 30.3431 98.3198 30.4371 98.9252C30.5311 99.5305 30.4472 100.15 30.1957 100.709C29.9636 101.274 29.5665 101.756 29.0563 102.092C28.5462 102.428 27.9465 102.602 27.3357 102.592C26.8755 102.576 26.4247 102.457 26.0153 102.246C25.606 102.035 25.2481 101.737 24.9672 101.372C24.6863 101.007 24.4892 100.585 24.39 100.135C24.2908 99.6853 24.2919 99.2192 24.3932 98.77C24.5312 98.0643 24.9066 97.4272 25.4569 96.9644C26.0072 96.5016 26.6993 96.2411 27.4182 96.2262ZM109.616 107.061C109.179 106.696 108.847 106.222 108.653 105.687C108.459 105.152 108.409 104.576 108.509 104.016C108.62 103.288 108.982 102.622 109.532 102.133C110.081 101.643 110.785 101.361 111.52 101.334C112.276 101.334 113.005 101.637 113.583 102.173C114.456 102.984 114.82 104.16 114.531 105.26C114.435 105.777 114.206 106.259 113.866 106.659C113.526 107.06 113.087 107.364 112.593 107.542C112.099 107.735 111.562 107.792 111.039 107.708C110.515 107.623 110.024 107.4 109.616 107.061ZM20.8938 102.091C21.8082 102.847 22.2345 104.05 22.0007 105.164C21.9263 105.662 21.7272 106.134 21.422 106.536C21.1167 106.937 20.7152 107.255 20.2544 107.46H20.2476C19.8391 107.654 19.3935 107.757 18.9413 107.763C18.4004 107.755 17.8722 107.598 17.4151 107.309C16.9035 106.989 16.4923 106.532 16.2284 105.99C15.9646 105.448 15.8588 104.842 15.9232 104.243C15.9605 103.651 16.1678 103.082 16.5202 102.605C16.8727 102.129 17.3553 101.764 17.9101 101.554C18.2467 101.41 18.6093 101.335 18.9757 101.334C19.6632 101.334 20.3301 101.596 20.8938 102.091ZM65.6501 8.39812C66.5438 8.39812 67.3895 8.78313 67.9876 9.45688C68.7232 10.2338 68.9982 11.3131 68.7232 12.3444C68.5895 12.9415 68.2772 13.4837 67.8276 13.8988C67.3781 14.314 66.8128 14.5823 66.207 14.6681H66.1726C65.5508 14.7903 64.9066 14.7233 64.3233 14.4758C63.7399 14.2282 63.2442 13.8115 62.9001 13.2794C62.6098 12.8318 62.4401 12.3169 62.4076 11.7844C62.3751 11.252 62.4808 10.7202 62.7145 10.2406L62.7213 10.2269C62.9434 9.7512 63.2813 9.33889 63.7041 9.02777C64.1269 8.71666 64.6211 8.5167 65.1413 8.44625C65.3114 8.41494 65.484 8.39884 65.657 8.39812H65.6501ZM12.0319 106.869C13.0288 107.432 13.6338 108.45 13.6269 109.55C13.6564 110.104 13.5375 110.656 13.2825 111.149C13.0276 111.643 12.6457 112.059 12.1763 112.355C11.6774 112.682 11.0952 112.858 10.4988 112.864C10.0065 112.868 9.52203 112.74 9.09632 112.493C8.59704 112.216 8.18233 111.809 7.89654 111.315C7.61076 110.821 7.46464 110.258 7.47382 109.688C7.47382 108.498 8.0857 107.419 9.06195 106.869C9.51006 106.598 10.0235 106.455 10.5469 106.455C11.0704 106.455 11.5838 106.598 12.0319 106.869ZM67.307 29.2844C67.7922 29.5862 68.1861 30.0145 68.4465 30.5231C68.7069 31.0318 68.8239 31.6017 68.7851 32.1719C68.7466 32.7371 68.5512 33.2805 68.2208 33.7408C67.8905 34.2011 67.4383 34.5601 66.9151 34.7775C66.4833 34.9744 66.0146 35.0776 65.5401 35.08C64.8354 35.0875 64.1491 34.8547 63.5944 34.42C63.1713 34.1071 62.8362 33.69 62.6218 33.2094C62.4074 32.7287 62.3209 32.2008 62.3707 31.6769C62.3998 31.1572 62.5626 30.6538 62.8432 30.2154C63.1238 29.777 63.5128 29.4184 63.9726 29.1744C64.4451 28.9024 64.9811 28.7601 65.5263 28.7619C66.16 28.7608 66.7805 28.9422 67.3138 29.2844H67.307ZM63.3882 24.0731C63.0273 23.7556 62.7469 23.3569 62.57 22.9099C62.3932 22.463 62.3248 21.9804 62.3707 21.5019V21.4812C62.4158 20.9885 62.5754 20.513 62.8368 20.0929C63.0982 19.6727 63.4542 19.3195 63.8763 19.0612C64.3731 18.7307 64.9572 18.556 65.5538 18.5594C66.1038 18.5594 66.6538 18.7037 67.1557 18.9719L67.1626 18.9787C67.6675 19.2505 68.0867 19.6575 68.3733 20.1542C68.6599 20.6508 68.8025 21.2175 68.7851 21.7906C68.7798 22.3938 68.5979 22.9822 68.2619 23.4832C67.9259 23.9841 67.4505 24.3756 66.8944 24.6094C66.4626 24.8061 65.994 24.9092 65.5195 24.9119C64.7268 24.921 63.962 24.62 63.3882 24.0731Z" fill="white"/>
</svg>
