<svg width="148" height="125" viewBox="0 0 148 125" fill="none" xmlns="http://www.w3.org/2000/svg">
<path d="M126.77 16.287L109 25.287L23.21 68.987C22.0017 59.6043 23.4211 50.0703 27.3104 41.4465C31.1997 32.8228 37.4061 25.4477 45.2387 20.1424C53.0712 14.837 62.2225 11.8097 71.6738 11.3974C81.125 10.985 90.5052 13.2039 98.77 17.807L108.92 12.677L110.44 11.907C101.129 5.14757 90.1306 1.09326 78.6601 0.191869C67.1895 -0.709525 55.693 1.57708 45.4403 6.79911C35.1877 12.0211 26.5779 19.9754 20.5619 29.7833C14.5459 39.5912 11.3579 50.8711 11.35 62.377C11.35 63.967 11.41 65.547 11.53 67.127C11.6994 69.3644 11.2042 71.602 10.1065 73.5589C9.00881 75.5159 7.35757 77.1051 5.36 78.127L0 80.857V93.607L15.79 85.607L20.9 82.997L25.9 80.427L116.37 34.287L126.54 29.117L147.54 18.407V5.67699L126.77 16.287Z" fill="black"/>
<path d="M147.54 31.167L31.07 90.467L20.91 95.677L0 106.317V119.057L20.77 108.467L38.53 99.467L124.41 55.677C124.698 57.902 124.842 60.1434 124.84 62.387C124.826 71.2944 122.486 80.0436 118.05 87.7678C113.614 95.492 107.236 101.923 99.5497 106.424C91.863 110.924 83.1337 113.338 74.2268 113.427C65.3198 113.515 56.5444 111.274 48.77 106.927L48.15 107.257L37.15 112.877C46.4632 119.638 57.4642 123.692 68.9374 124.593C80.4106 125.493 91.9094 123.204 102.163 117.978C112.417 112.752 121.026 104.794 127.04 94.9815C133.054 85.1693 136.238 73.8855 136.24 62.377C136.24 60.777 136.18 59.167 136.06 57.587C135.886 55.3501 136.378 53.1117 137.474 51.154C138.57 49.1964 140.222 47.6073 142.22 46.587L147.59 43.857L147.54 31.167Z" fill="black"/>
</svg>
