<svg width="116" height="173" viewBox="0 0 116 173" fill="none" xmlns="http://www.w3.org/2000/svg">
<path fill-rule="evenodd" clip-rule="evenodd" d="M57.88 0L86.82 43.24L115.76 86.49L57.88 115.65L0 86.38L28.94 43.13L57.88 0ZM57.88 127.3L3.21 98.13L57.88 172.76L112.55 98.13L57.88 127.3Z" fill="#343434"/>
<path fill-rule="evenodd" clip-rule="evenodd" d="M57.8809 0L86.8209 43.13L115.761 86.38L57.8809 64.53V0Z" fill="#343434"/>
<path fill-rule="evenodd" clip-rule="evenodd" d="M57.8809 127.3L112.661 98.1299L57.8809 172.87V127.3Z" fill="#313131"/>
<path fill-rule="evenodd" clip-rule="evenodd" d="M57.8809 64.5298L115.761 86.3798L57.8809 115.54V64.5298Z" fill="#151515"/>
<path fill-rule="evenodd" clip-rule="evenodd" d="M57.88 0L28.94 43.13L0 86.38L57.88 64.53V0Z" fill="#8C8C8C"/>
<path fill-rule="evenodd" clip-rule="evenodd" d="M57.8809 127.3L3.21094 98.1299L57.8809 172.87V127.3Z" fill="#8A8A8A"/>
<path fill-rule="evenodd" clip-rule="evenodd" d="M57.88 64.5298L0 86.3798L57.88 115.54V64.5298Z" fill="#353535"/>
</svg>
