<svg width="75" height="80" viewBox="0 0 75 80" fill="none" xmlns="http://www.w3.org/2000/svg">
<path d="M16.8523 4.98841L37.2542 28.7979L50.9266 20.5342C50.9266 20.5342 34.3773 -1.51162 30.1377 0.0824617C25.8981 1.67854 16.8523 4.98841 16.8523 4.98841Z" fill="#000008"/>
<path d="M51.2222 20.5622C51.2222 20.5622 54.1929 15.1874 55.773 8.02695C55.773 8.02695 71.225 14.126 65.4233 29.588L51.2222 20.5622Z" fill="#000008"/>
<path d="M65.4233 29.588L66.726 45.9119L72.7253 45.2276C72.7253 45.2276 74.3912 44.8026 74.078 41.7661C73.7647 38.7295 73.2141 32.2854 73.2141 32.2854C73.2141 32.2854 73.4854 30.6594 69.8025 30.1466C65.4272 29.5381 65.4213 29.588 65.4213 29.588H65.4233Z" fill="#000008"/>
<path d="M66.728 45.9119L54.8153 55.4565L60.3477 66.0345C60.3477 66.0345 61.7363 70.0726 65.4252 65.4739C69.1141 60.8732 70.5187 59.9794 70.3252 57.2002C70.1336 54.423 69.3496 47.8152 66.728 45.9119Z" fill="#000008"/>
<path d="M54.8134 55.4565L38.5434 48.2941L24.1906 76.9138C24.1906 76.9138 23.2071 78.849 26.8242 79.3179C30.4413 79.7867 36.3667 81.0855 39.4412 78.0649C42.5156 75.0444 54.8134 55.4565 54.8134 55.4565Z" fill="#000008"/>
<path d="M38.4692 47.891L36.933 28.8638L1.90907 31.198C1.90907 31.198 -0.201746 31.5592 0.0157191 35.302C0.318974 40.5152 0.825728 46.0216 0.825728 46.0216C0.825728 46.0216 0.662131 48.4397 5.26681 48.7011C9.8715 48.9604 37.9086 49.0103 38.4672 47.891H38.4692Z" fill="#000008"/>
</svg>
