<svg width="127" height="145" viewBox="0 0 127 145" fill="none" xmlns="http://www.w3.org/2000/svg">
<path d="M63.1375 0.019043C54.2344 0.019043 47.0156 32.3109 47.0156 72.1378C47.0156 111.965 54.2344 144.257 63.1375 144.257C72.0337 144.257 79.2525 111.965 79.2525 72.1378C79.2525 32.3109 72.0337 0.019043 63.1375 0.019043ZM64.2512 140.18C63.2337 141.541 62.2094 140.523 62.2094 140.523C58.1119 135.766 56.0631 126.945 56.0631 126.945C48.8925 103.866 50.5975 54.3178 50.5975 54.3178C53.9662 14.9859 60.0987 5.69092 62.1819 3.62842C62.3952 3.41689 62.6766 3.28773 62.9761 3.26382C63.2756 3.23991 63.5739 3.3228 63.8181 3.49779C66.8431 5.64967 69.3869 14.6147 69.3869 14.6147C76.8806 42.4447 76.2 68.5697 76.2 68.5697C76.8806 91.3122 72.4462 116.763 72.4462 116.763C69.0294 136.11 64.2512 140.18 64.2512 140.18Z" fill="white"/>
<path d="M125.686 36.2505C121.252 28.523 89.6615 38.3337 55.1009 58.1543C20.5402 77.9749 -3.83851 100.298 0.582115 108.026C5.01649 115.753 36.614 105.942 71.1746 86.1218C105.735 66.3012 130.121 43.9712 125.693 36.2505H125.686ZM4.66586 106.96C2.97461 106.754 3.35961 105.351 3.35961 105.351C5.43586 99.4387 12.0634 93.2649 12.0634 93.2649C28.5152 75.5618 72.3502 52.3862 72.3502 52.3862C108.141 35.7349 119.258 36.4362 122.077 37.2062C122.368 37.286 122.621 37.4668 122.791 37.7162C122.961 37.9656 123.037 38.2673 123.005 38.5674C122.661 42.2593 116.13 48.928 116.13 48.928C95.739 69.2849 72.7352 81.708 72.7352 81.708C53.3477 93.6155 29.0584 102.422 29.0584 102.422C10.5784 109.077 4.66586 106.96 4.66586 106.96Z" fill="white"/>
<path d="M125.528 108.279C129.997 100.579 105.68 78.1463 71.2296 58.1745C36.7858 38.2095 5.20206 28.282 0.740184 35.9957C-3.72857 43.7163 20.5952 66.1288 55.0527 86.1007C89.5171 106.066 121.066 115.993 125.528 108.279ZM3.70331 38.9726C3.03643 37.4051 4.43206 37.027 4.43206 37.027C10.5989 35.8582 19.2614 38.5188 19.2614 38.5188C42.8221 43.8813 84.8352 70.1988 84.8352 70.1988C117.182 92.8313 122.146 102.807 122.888 105.633C122.963 105.923 122.934 106.23 122.804 106.501C122.675 106.771 122.454 106.987 122.18 107.111C118.811 108.658 109.771 106.354 109.771 106.354C81.9271 98.8882 59.6589 85.2138 59.6589 85.2138C39.6527 74.4201 19.8664 57.817 19.8664 57.817C4.83081 45.1532 3.71018 38.9795 3.71018 38.9795L3.69643 38.9726H3.70331Z" fill="white"/>
<path d="M62.9662 80.4494C67.6516 80.4494 71.4499 76.6511 71.4499 71.9657C71.4499 67.2802 67.6516 63.4819 62.9662 63.4819C58.2807 63.4819 54.4824 67.2802 54.4824 71.9657C54.4824 76.6511 58.2807 80.4494 62.9662 80.4494Z" fill="white"/>
<path d="M97.7539 46.2607C101.551 46.2607 104.629 43.1827 104.629 39.3857C104.629 35.5888 101.551 32.5107 97.7539 32.5107C93.9569 32.5107 90.8789 35.5888 90.8789 39.3857C90.8789 43.1827 93.9569 46.2607 97.7539 46.2607Z" fill="white"/>
<path d="M16.9785 63.571C20.7755 63.571 23.8535 60.493 23.8535 56.696C23.8535 52.8991 20.7755 49.821 16.9785 49.821C13.1816 49.821 10.1035 52.8991 10.1035 56.696C10.1035 60.493 13.1816 63.571 16.9785 63.571Z" fill="white"/>
<path d="M52.9551 126.01C56.752 126.01 59.8301 122.932 59.8301 119.135C59.8301 115.338 56.752 112.26 52.9551 112.26C49.1581 112.26 46.0801 115.338 46.0801 119.135C46.0801 122.932 49.1581 126.01 52.9551 126.01Z" fill="white"/>
</svg>
