<svg width="26" height="22" viewBox="0 0 26 22" fill="none" xmlns="http://www.w3.org/2000/svg">
<path d="M25.3537 17.1752L21.2267 21.487C21.137 21.5806 21.0284 21.6553 20.9078 21.7064C20.7872 21.7574 20.657 21.7837 20.5256 21.7836H0.961538C0.868187 21.7836 0.77687 21.7571 0.698809 21.7072C0.620746 21.6573 0.559338 21.5863 0.522129 21.5029C0.48492 21.4195 0.473531 21.3274 0.489362 21.2377C0.505193 21.1481 0.547553 21.0649 0.611239 20.9984L4.74136 16.6866C4.83084 16.5932 4.93903 16.5187 5.05925 16.4677C5.1795 16.4166 5.3092 16.3902 5.44037 16.39H25.0033C25.0967 16.39 25.188 16.4165 25.2661 16.4664C25.3441 16.5163 25.4054 16.5873 25.4428 16.6707C25.4799 16.7541 25.4913 16.8462 25.4755 16.9359C25.4596 17.0255 25.4173 17.1087 25.3537 17.1752ZM21.2267 8.49236C21.137 8.39869 21.0284 8.32401 20.9078 8.27297C20.7872 8.22196 20.657 8.19565 20.5256 8.19572H0.961538C0.868187 8.19572 0.77687 8.22228 0.698809 8.27216C0.620746 8.32203 0.559338 8.39302 0.522129 8.47642C0.48492 8.55983 0.473531 8.65201 0.489362 8.74164C0.505193 8.83124 0.547553 8.91441 0.611239 8.98092L4.74136 13.2928C4.83084 13.3862 4.93903 13.4607 5.05925 13.5117C5.1795 13.5627 5.3092 13.5892 5.44037 13.5894H25.0033C25.0967 13.5894 25.188 13.5628 25.2661 13.5129C25.3441 13.4631 25.4054 13.3921 25.4428 13.3087C25.4799 13.2253 25.4913 13.1331 25.4755 13.0435C25.4596 12.9539 25.4173 12.8707 25.3537 12.8042L21.2267 8.49236ZM0.961538 5.39515H20.5256C20.657 5.3952 20.7872 5.36892 20.9078 5.31788C21.0284 5.26684 21.137 5.19216 21.2267 5.09849L25.3537 0.78666C25.4173 0.72017 25.4596 0.637004 25.4755 0.547381C25.4913 0.457757 25.4799 0.365581 25.4428 0.282178C25.4054 0.198774 25.3441 0.127776 25.2661 0.0779062C25.188 0.0280364 25.0967 0.00146791 25.0033 0.00146484H5.44037C5.3092 0.00168227 5.1795 0.028123 5.05925 0.07915C4.93903 0.130177 4.83084 0.204704 4.74136 0.298118L0.612304 4.60995C0.54868 4.67637 0.506338 4.75946 0.490471 4.84897C0.474604 4.93849 0.485903 5.0306 0.52298 5.11396C0.560058 5.19733 0.621303 5.26832 0.699205 5.31827C0.777108 5.36822 0.868278 5.39493 0.961538 5.39515Z" fill="url(#paint0_linear_1539_11789)"/>
<defs>
<linearGradient id="paint0_linear_1539_11789" x1="2.59271" y1="22.3028" x2="22.5105" y2="-0.745125" gradientUnits="userSpaceOnUse">
<stop offset="0.08" stop-color="#9945FF"/>
<stop offset="0.3" stop-color="#8752F3"/>
<stop offset="0.5" stop-color="#5497D5"/>
<stop offset="0.6" stop-color="#43B4CA"/>
<stop offset="0.72" stop-color="#28E0B9"/>
<stop offset="0.97" stop-color="#19FB9B"/>
</linearGradient>
</defs>
</svg>
